  0
SECTION
  2
HEADER
  9
$ACADVER
  1
AC1009
  9
$EXTMIN
 10
0.0
 20
0.0
 30
0.0
  9
$EXTMAX
 10
1000.0
 20
1000.0
 30
0.0
  9
$FILLMODE
 70
 0
  9
$SPLFRAME
 70
 1
  0
ENDSEC
  0
SECTION
  2
TABLES
  0
TABLE
  2
LAYER
 70
1
  0
LAYER
  2
0
 70
     0
 62
     7
  6
CONTINUOUS
  0
ENDTAB
  0
ENDSEC
  0
SECTION
  2
ENTITIES
  0
LINE
  8
0
 62
     0
 10
0.0950846
 20
76.2801
 30
0.0
 11
228.695
 21
76.2801
 31
0.0
  0
LINE
  8
0
 62
     0
 10
228.695
 20
76.2801
 30
0.0
 11
228.695
 21
0.0799264
 31
0.0
  0
LINE
  8
0
 62
     0
 10
228.695
 20
0.0799264
 30
0.0
 11
0.0950846
 21
0.0799264
 31
0.0
  0
LINE
  8
0
 62
     0
 10
0.0950846
 20
0.0799264
 30
0.0
 11
0.0950846
 21
76.2801
 31
0.0
  0
LINE
  8
0
 62
     0
 10
107.395
 20
16.6054
 30
0.0
 11
107.395
 21
15.6049
 31
0.0
  0
LINE
  8
0
 62
     0
 10
107.395
 20
15.6049
 30
0.0
 11
106.595
 21
15.6049
 31
0.0
  0
LINE
  8
0
 62
     0
 10
106.595
 20
15.6049
 30
0.0
 11
106.595
 21
12.5057
 31
0.0
  0
LINE
  8
0
 62
     0
 10
106.595
 20
12.5057
 30
0.0
 11
107.395
 21
12.5057
 31
0.0
  0
LINE
  8
0
 62
     0
 10
107.395
 20
12.5057
 30
0.0
 11
107.395
 21
11.9049
 31
0.0
  0
LINE
  8
0
 62
     0
 10
107.395
 20
11.9049
 30
0.0
 11
105.869
 21
11.9049
 31
0.0
  0
LINE
  8
0
 62
     0
 10
105.869
 20
11.9049
 30
0.0
 11
105.869
 21
15.135
 31
0.0
  0
LINE
  8
0
 62
     0
 10
105.869
 20
15.135
 30
0.0
 11
104.145
 21
15.135
 31
0.0
  0
LINE
  8
0
 62
     0
 10
104.145
 20
15.135
 30
0.0
 11
104.145
 21
16.0569
 31
0.0
  0
LINE
  8
0
 62
     0
 10
104.145
 20
16.0569
 30
0.0
 11
100.845
 21
16.0569
 31
0.0
  0
LINE
  8
0
 62
     0
 10
100.845
 20
16.0569
 30
0.0
 11
100.845
 21
15.135
 31
0.0
  0
LINE
  8
0
 62
     0
 10
100.845
 20
15.135
 30
0.0
 11
99.1182
 21
15.135
 31
0.0
  0
LINE
  8
0
 62
     0
 10
99.1182
 20
15.135
 30
0.0
 11
99.1182
 21
11.9049
 31
0.0
  0
LINE
  8
0
 62
     0
 10
99.1182
 20
11.9049
 30
0.0
 11
98.2941
 21
11.9049
 31
0.0
  0
LINE
  8
0
 62
     0
 10
98.2941
 20
11.9049
 30
0.0
 11
98.2941
 21
9.1047
 31
0.0
  0
LINE
  8
0
 62
     0
 10
98.2941
 20
9.1047
 30
0.0
 11
99.1182
 21
9.1047
 31
0.0
  0
LINE
  8
0
 62
     0
 10
99.1182
 20
9.1047
 30
0.0
 11
99.1182
 21
2.83463
 31
0.0
  0
LINE
  8
0
 62
     0
 10
99.1182
 20
2.83463
 30
0.0
 11
100.845
 21
2.83463
 31
0.0
  0
LINE
  8
0
 62
     0
 10
100.845
 20
2.83463
 30
0.0
 11
100.845
 21
1.85484
 31
0.0
  0
LINE
  8
0
 62
     0
 10
100.845
 20
1.85484
 30
0.0
 11
104.145
 21
1.85484
 31
0.0
  0
LINE
  8
0
 62
     0
 10
104.145
 20
1.85484
 30
0.0
 11
104.145
 21
2.83463
 31
0.0
  0
LINE
  8
0
 62
     0
 10
104.145
 20
2.83463
 30
0.0
 11
105.869
 21
2.83463
 31
0.0
  0
LINE
  8
0
 62
     0
 10
105.869
 20
2.83463
 30
0.0
 11
105.869
 21
7.30497
 31
0.0
  0
LINE
  8
0
 62
     0
 10
105.869
 20
7.30497
 30
0.0
 11
107.395
 21
7.30497
 31
0.0
  0
LINE
  8
0
 62
     0
 10
107.395
 20
7.30497
 30
0.0
 11
107.395
 21
6.70553
 31
0.0
  0
LINE
  8
0
 62
     0
 10
107.395
 20
6.70553
 30
0.0
 11
106.595
 21
6.70553
 31
0.0
  0
LINE
  8
0
 62
     0
 10
106.595
 20
6.70553
 30
0.0
 11
106.595
 21
3.60497
 31
0.0
  0
LINE
  8
0
 62
     0
 10
106.595
 20
3.60497
 30
0.0
 11
107.395
 21
3.60497
 31
0.0
  0
LINE
  8
0
 62
     0
 10
107.395
 20
3.60497
 30
0.0
 11
107.395
 21
2.60587
 31
0.0
  0
LINE
  8
0
 62
     0
 10
107.395
 20
2.60587
 30
0.0
 11
121.394
 21
2.60587
 31
0.0
  0
LINE
  8
0
 62
     0
 10
121.394
 20
2.60587
 30
0.0
 11
121.394
 21
3.60497
 31
0.0
  0
LINE
  8
0
 62
     0
 10
121.394
 20
3.60497
 30
0.0
 11
122.195
 21
3.60497
 31
0.0
  0
LINE
  8
0
 62
     0
 10
122.195
 20
3.60497
 30
0.0
 11
122.195
 21
6.70553
 31
0.0
  0
LINE
  8
0
 62
     0
 10
122.195
 20
6.70553
 30
0.0
 11
121.394
 21
6.70553
 31
0.0
  0
LINE
  8
0
 62
     0
 10
121.394
 20
6.70553
 30
0.0
 11
121.394
 21
7.30497
 31
0.0
  0
LINE
  8
0
 62
     0
 10
121.394
 20
7.30497
 30
0.0
 11
122.92
 21
7.30497
 31
0.0
  0
LINE
  8
0
 62
     0
 10
122.92
 20
7.30497
 30
0.0
 11
122.92
 21
2.83463
 31
0.0
  0
LINE
  8
0
 62
     0
 10
122.92
 20
2.83463
 30
0.0
 11
124.645
 21
2.83463
 31
0.0
  0
LINE
  8
0
 62
     0
 10
124.645
 20
2.83463
 30
0.0
 11
124.645
 21
1.85484
 31
0.0
  0
LINE
  8
0
 62
     0
 10
124.645
 20
1.85484
 30
0.0
 11
127.945
 21
1.85484
 31
0.0
  0
LINE
  8
0
 62
     0
 10
127.945
 20
1.85484
 30
0.0
 11
127.945
 21
2.83463
 31
0.0
  0
LINE
  8
0
 62
     0
 10
127.945
 20
2.83463
 30
0.0
 11
129.669
 21
2.83463
 31
0.0
  0
LINE
  8
0
 62
     0
 10
129.669
 20
2.83463
 30
0.0
 11
129.669
 21
9.1047
 31
0.0
  0
LINE
  8
0
 62
     0
 10
129.669
 20
9.1047
 30
0.0
 11
130.495
 21
9.1047
 31
0.0
  0
LINE
  8
0
 62
     0
 10
130.495
 20
9.1047
 30
0.0
 11
130.495
 21
11.9049
 31
0.0
  0
LINE
  8
0
 62
     0
 10
130.495
 20
11.9049
 30
0.0
 11
129.669
 21
11.9049
 31
0.0
  0
LINE
  8
0
 62
     0
 10
129.669
 20
11.9049
 30
0.0
 11
129.669
 21
15.135
 31
0.0
  0
LINE
  8
0
 62
     0
 10
129.669
 20
15.135
 30
0.0
 11
127.945
 21
15.135
 31
0.0
  0
LINE
  8
0
 62
     0
 10
127.945
 20
15.135
 30
0.0
 11
127.945
 21
16.0569
 31
0.0
  0
LINE
  8
0
 62
     0
 10
127.945
 20
16.0569
 30
0.0
 11
124.645
 21
16.0569
 31
0.0
  0
LINE
  8
0
 62
     0
 10
124.645
 20
16.0569
 30
0.0
 11
124.645
 21
15.135
 31
0.0
  0
LINE
  8
0
 62
     0
 10
124.645
 20
15.135
 30
0.0
 11
122.92
 21
15.135
 31
0.0
  0
LINE
  8
0
 62
     0
 10
122.92
 20
15.135
 30
0.0
 11
122.92
 21
11.9049
 31
0.0
  0
LINE
  8
0
 62
     0
 10
122.92
 20
11.9049
 30
0.0
 11
121.394
 21
11.9049
 31
0.0
  0
LINE
  8
0
 62
     0
 10
121.394
 20
11.9049
 30
0.0
 11
121.394
 21
12.5057
 31
0.0
  0
LINE
  8
0
 62
     0
 10
121.394
 20
12.5057
 30
0.0
 11
122.195
 21
12.5057
 31
0.0
  0
LINE
  8
0
 62
     0
 10
122.195
 20
12.5057
 30
0.0
 11
122.195
 21
15.6049
 31
0.0
  0
LINE
  8
0
 62
     0
 10
122.195
 20
15.6049
 30
0.0
 11
121.394
 21
15.6049
 31
0.0
  0
LINE
  8
0
 62
     0
 10
121.394
 20
15.6049
 30
0.0
 11
121.394
 21
16.6054
 31
0.0
  0
LINE
  8
0
 62
     0
 10
121.394
 20
16.6054
 30
0.0
 11
107.395
 21
16.6054
 31
0.0
  0
LINE
  8
0
 62
     0
 10
2.61965
 20
16.6054
 30
0.0
 11
2.61965
 21
15.6049
 31
0.0
  0
LINE
  8
0
 62
     0
 10
2.61965
 20
15.6049
 30
0.0
 11
1.82039
 21
15.6049
 31
0.0
  0
LINE
  8
0
 62
     0
 10
1.82039
 20
15.6049
 30
0.0
 11
1.82039
 21
12.5057
 31
0.0
  0
LINE
  8
0
 62
     0
 10
1.82039
 20
12.5057
 30
0.0
 11
2.61965
 21
12.5057
 31
0.0
  0
LINE
  8
0
 62
     0
 10
2.61965
 20
12.5057
 30
0.0
 11
2.61965
 21
6.70553
 31
0.0
  0
LINE
  8
0
 62
     0
 10
2.61965
 20
6.70553
 30
0.0
 11
1.82039
 21
6.70553
 31
0.0
  0
LINE
  8
0
 62
     0
 10
1.82039
 20
6.70553
 30
0.0
 11
1.82039
 21
3.60497
 31
0.0
  0
LINE
  8
0
 62
     0
 10
1.82039
 20
3.60497
 30
0.0
 11
2.61965
 21
3.60497
 31
0.0
  0
LINE
  8
0
 62
     0
 10
2.61965
 20
3.60497
 30
0.0
 11
2.61965
 21
2.60587
 31
0.0
  0
LINE
  8
0
 62
     0
 10
2.61965
 20
2.60587
 30
0.0
 11
16.6192
 21
2.60587
 31
0.0
  0
LINE
  8
0
 62
     0
 10
16.6192
 20
2.60587
 30
0.0
 11
16.6192
 21
3.60497
 31
0.0
  0
LINE
  8
0
 62
     0
 10
16.6192
 20
3.60497
 30
0.0
 11
17.4198
 21
3.60497
 31
0.0
  0
LINE
  8
0
 62
     0
 10
17.4198
 20
3.60497
 30
0.0
 11
17.4198
 21
6.70553
 31
0.0
  0
LINE
  8
0
 62
     0
 10
17.4198
 20
6.70553
 30
0.0
 11
16.6192
 21
6.70553
 31
0.0
  0
LINE
  8
0
 62
     0
 10
16.6192
 20
6.70553
 30
0.0
 11
16.6192
 21
12.5057
 31
0.0
  0
LINE
  8
0
 62
     0
 10
16.6192
 20
12.5057
 30
0.0
 11
17.4198
 21
12.5057
 31
0.0
  0
LINE
  8
0
 62
     0
 10
17.4198
 20
12.5057
 30
0.0
 11
17.4198
 21
15.6049
 31
0.0
  0
LINE
  8
0
 62
     0
 10
17.4198
 20
15.6049
 30
0.0
 11
16.6192
 21
15.6049
 31
0.0
  0
LINE
  8
0
 62
     0
 10
16.6192
 20
15.6049
 30
0.0
 11
16.6192
 21
16.6054
 31
0.0
  0
LINE
  8
0
 62
     0
 10
16.6192
 20
16.6054
 30
0.0
 11
2.61965
 21
16.6054
 31
0.0
  0
LINE
  8
0
 62
     0
 10
21.6697
 20
16.6054
 30
0.0
 11
21.6697
 21
15.6049
 31
0.0
  0
LINE
  8
0
 62
     0
 10
21.6697
 20
15.6049
 30
0.0
 11
20.8704
 21
15.6049
 31
0.0
  0
LINE
  8
0
 62
     0
 10
20.8704
 20
15.6049
 30
0.0
 11
20.8704
 21
12.5057
 31
0.0
  0
LINE
  8
0
 62
     0
 10
20.8704
 20
12.5057
 30
0.0
 11
21.6697
 21
12.5057
 31
0.0
  0
LINE
  8
0
 62
     0
 10
21.6697
 20
12.5057
 30
0.0
 11
21.6697
 21
6.70553
 31
0.0
  0
LINE
  8
0
 62
     0
 10
21.6697
 20
6.70553
 30
0.0
 11
20.8704
 21
6.70553
 31
0.0
  0
LINE
  8
0
 62
     0
 10
20.8704
 20
6.70553
 30
0.0
 11
20.8704
 21
3.60497
 31
0.0
  0
LINE
  8
0
 62
     0
 10
20.8704
 20
3.60497
 30
0.0
 11
21.6697
 21
3.60497
 31
0.0
  0
LINE
  8
0
 62
     0
 10
21.6697
 20
3.60497
 30
0.0
 11
21.6697
 21
2.60587
 31
0.0
  0
LINE
  8
0
 62
     0
 10
21.6697
 20
2.60587
 30
0.0
 11
35.669
 21
2.60587
 31
0.0
  0
LINE
  8
0
 62
     0
 10
35.669
 20
2.60587
 30
0.0
 11
35.669
 21
3.60497
 31
0.0
  0
LINE
  8
0
 62
     0
 10
35.669
 20
3.60497
 30
0.0
 11
36.4698
 21
3.60497
 31
0.0
  0
LINE
  8
0
 62
     0
 10
36.4698
 20
3.60497
 30
0.0
 11
36.4698
 21
6.70553
 31
0.0
  0
LINE
  8
0
 62
     0
 10
36.4698
 20
6.70553
 30
0.0
 11
35.669
 21
6.70553
 31
0.0
  0
LINE
  8
0
 62
     0
 10
35.669
 20
6.70553
 30
0.0
 11
35.669
 21
12.5057
 31
0.0
  0
LINE
  8
0
 62
     0
 10
35.669
 20
12.5057
 30
0.0
 11
36.4698
 21
12.5057
 31
0.0
  0
LINE
  8
0
 62
     0
 10
36.4698
 20
12.5057
 30
0.0
 11
36.4698
 21
15.6049
 31
0.0
  0
LINE
  8
0
 62
     0
 10
36.4698
 20
15.6049
 30
0.0
 11
35.669
 21
15.6049
 31
0.0
  0
LINE
  8
0
 62
     0
 10
35.669
 20
15.6049
 30
0.0
 11
35.669
 21
16.6054
 31
0.0
  0
LINE
  8
0
 62
     0
 10
35.669
 20
16.6054
 30
0.0
 11
21.6697
 21
16.6054
 31
0.0
  0
LINE
  8
0
 62
     0
 10
40.7197
 20
16.6054
 30
0.0
 11
40.7197
 21
15.6049
 31
0.0
  0
LINE
  8
0
 62
     0
 10
40.7197
 20
15.6049
 30
0.0
 11
39.9203
 21
15.6049
 31
0.0
  0
LINE
  8
0
 62
     0
 10
39.9203
 20
15.6049
 30
0.0
 11
39.9203
 21
12.5057
 31
0.0
  0
LINE
  8
0
 62
     0
 10
39.9203
 20
12.5057
 30
0.0
 11
40.7197
 21
12.5057
 31
0.0
  0
LINE
  8
0
 62
     0
 10
40.7197
 20
12.5057
 30
0.0
 11
40.7197
 21
6.70553
 31
0.0
  0
LINE
  8
0
 62
     0
 10
40.7197
 20
6.70553
 30
0.0
 11
39.9203
 21
6.70553
 31
0.0
  0
LINE
  8
0
 62
     0
 10
39.9203
 20
6.70553
 30
0.0
 11
39.9203
 21
3.60497
 31
0.0
  0
LINE
  8
0
 62
     0
 10
39.9203
 20
3.60497
 30
0.0
 11
40.7197
 21
3.60497
 31
0.0
  0
LINE
  8
0
 62
     0
 10
40.7197
 20
3.60497
 30
0.0
 11
40.7197
 21
2.60587
 31
0.0
  0
LINE
  8
0
 62
     0
 10
40.7197
 20
2.60587
 30
0.0
 11
54.719
 21
2.60587
 31
0.0
  0
LINE
  8
0
 62
     0
 10
54.719
 20
2.60587
 30
0.0
 11
54.719
 21
3.60497
 31
0.0
  0
LINE
  8
0
 62
     0
 10
54.719
 20
3.60497
 30
0.0
 11
55.5198
 21
3.60497
 31
0.0
  0
LINE
  8
0
 62
     0
 10
55.5198
 20
3.60497
 30
0.0
 11
55.5198
 21
6.70553
 31
0.0
  0
LINE
  8
0
 62
     0
 10
55.5198
 20
6.70553
 30
0.0
 11
54.719
 21
6.70553
 31
0.0
  0
LINE
  8
0
 62
     0
 10
54.719
 20
6.70553
 30
0.0
 11
54.719
 21
12.5057
 31
0.0
  0
LINE
  8
0
 62
     0
 10
54.719
 20
12.5057
 30
0.0
 11
55.5198
 21
12.5057
 31
0.0
  0
LINE
  8
0
 62
     0
 10
55.5198
 20
12.5057
 30
0.0
 11
55.5198
 21
15.6049
 31
0.0
  0
LINE
  8
0
 62
     0
 10
55.5198
 20
15.6049
 30
0.0
 11
54.719
 21
15.6049
 31
0.0
  0
LINE
  8
0
 62
     0
 10
54.719
 20
15.6049
 30
0.0
 11
54.719
 21
16.6054
 31
0.0
  0
LINE
  8
0
 62
     0
 10
54.719
 20
16.6054
 30
0.0
 11
40.7197
 21
16.6054
 31
0.0
  0
LINE
  8
0
 62
     0
 10
59.7697
 20
16.6054
 30
0.0
 11
59.7697
 21
15.6049
 31
0.0
  0
LINE
  8
0
 62
     0
 10
59.7697
 20
15.6049
 30
0.0
 11
58.9703
 21
15.6049
 31
0.0
  0
LINE
  8
0
 62
     0
 10
58.9703
 20
15.6049
 30
0.0
 11
58.9703
 21
12.5057
 31
0.0
  0
LINE
  8
0
 62
     0
 10
58.9703
 20
12.5057
 30
0.0
 11
59.7697
 21
12.5057
 31
0.0
  0
LINE
  8
0
 62
     0
 10
59.7697
 20
12.5057
 30
0.0
 11
59.7697
 21
6.70553
 31
0.0
  0
LINE
  8
0
 62
     0
 10
59.7697
 20
6.70553
 30
0.0
 11
58.9703
 21
6.70553
 31
0.0
  0
LINE
  8
0
 62
     0
 10
58.9703
 20
6.70553
 30
0.0
 11
58.9703
 21
3.60497
 31
0.0
  0
LINE
  8
0
 62
     0
 10
58.9703
 20
3.60497
 30
0.0
 11
59.7697
 21
3.60497
 31
0.0
  0
LINE
  8
0
 62
     0
 10
59.7697
 20
3.60497
 30
0.0
 11
59.7697
 21
2.60587
 31
0.0
  0
LINE
  8
0
 62
     0
 10
59.7697
 20
2.60587
 30
0.0
 11
73.769
 21
2.60587
 31
0.0
  0
LINE
  8
0
 62
     0
 10
73.769
 20
2.60587
 30
0.0
 11
73.769
 21
3.60497
 31
0.0
  0
LINE
  8
0
 62
     0
 10
73.769
 20
3.60497
 30
0.0
 11
74.5698
 21
3.60497
 31
0.0
  0
LINE
  8
0
 62
     0
 10
74.5698
 20
3.60497
 30
0.0
 11
74.5698
 21
6.70553
 31
0.0
  0
LINE
  8
0
 62
     0
 10
74.5698
 20
6.70553
 30
0.0
 11
73.769
 21
6.70553
 31
0.0
  0
LINE
  8
0
 62
     0
 10
73.769
 20
6.70553
 30
0.0
 11
73.769
 21
12.5057
 31
0.0
  0
LINE
  8
0
 62
     0
 10
73.769
 20
12.5057
 30
0.0
 11
74.5698
 21
12.5057
 31
0.0
  0
LINE
  8
0
 62
     0
 10
74.5698
 20
12.5057
 30
0.0
 11
74.5698
 21
15.6049
 31
0.0
  0
LINE
  8
0
 62
     0
 10
74.5698
 20
15.6049
 30
0.0
 11
73.769
 21
15.6049
 31
0.0
  0
LINE
  8
0
 62
     0
 10
73.769
 20
15.6049
 30
0.0
 11
73.769
 21
16.6054
 31
0.0
  0
LINE
  8
0
 62
     0
 10
73.769
 20
16.6054
 30
0.0
 11
59.7697
 21
16.6054
 31
0.0
  0
LINE
  8
0
 62
     0
 10
78.8197
 20
16.6054
 30
0.0
 11
78.8197
 21
15.6049
 31
0.0
  0
LINE
  8
0
 62
     0
 10
78.8197
 20
15.6049
 30
0.0
 11
78.0203
 21
15.6049
 31
0.0
  0
LINE
  8
0
 62
     0
 10
78.0203
 20
15.6049
 30
0.0
 11
78.0203
 21
12.5057
 31
0.0
  0
LINE
  8
0
 62
     0
 10
78.0203
 20
12.5057
 30
0.0
 11
78.8197
 21
12.5057
 31
0.0
  0
LINE
  8
0
 62
     0
 10
78.8197
 20
12.5057
 30
0.0
 11
78.8197
 21
6.70553
 31
0.0
  0
LINE
  8
0
 62
     0
 10
78.8197
 20
6.70553
 30
0.0
 11
78.0203
 21
6.70553
 31
0.0
  0
LINE
  8
0
 62
     0
 10
78.0203
 20
6.70553
 30
0.0
 11
78.0203
 21
3.60497
 31
0.0
  0
LINE
  8
0
 62
     0
 10
78.0203
 20
3.60497
 30
0.0
 11
78.8197
 21
3.60497
 31
0.0
  0
LINE
  8
0
 62
     0
 10
78.8197
 20
3.60497
 30
0.0
 11
78.8197
 21
2.60587
 31
0.0
  0
LINE
  8
0
 62
     0
 10
78.8197
 20
2.60587
 30
0.0
 11
92.819
 21
2.60587
 31
0.0
  0
LINE
  8
0
 62
     0
 10
92.819
 20
2.60587
 30
0.0
 11
92.819
 21
3.60497
 31
0.0
  0
LINE
  8
0
 62
     0
 10
92.819
 20
3.60497
 30
0.0
 11
93.6184
 21
3.60497
 31
0.0
  0
LINE
  8
0
 62
     0
 10
93.6184
 20
3.60497
 30
0.0
 11
93.6184
 21
6.70553
 31
0.0
  0
LINE
  8
0
 62
     0
 10
93.6184
 20
6.70553
 30
0.0
 11
92.819
 21
6.70553
 31
0.0
  0
LINE
  8
0
 62
     0
 10
92.819
 20
6.70553
 30
0.0
 11
92.819
 21
12.5057
 31
0.0
  0
LINE
  8
0
 62
     0
 10
92.819
 20
12.5057
 30
0.0
 11
93.6184
 21
12.5057
 31
0.0
  0
LINE
  8
0
 62
     0
 10
93.6184
 20
12.5057
 30
0.0
 11
93.6184
 21
15.6049
 31
0.0
  0
LINE
  8
0
 62
     0
 10
93.6184
 20
15.6049
 30
0.0
 11
92.819
 21
15.6049
 31
0.0
  0
LINE
  8
0
 62
     0
 10
92.819
 20
15.6049
 30
0.0
 11
92.819
 21
16.6054
 31
0.0
  0
LINE
  8
0
 62
     0
 10
92.819
 20
16.6054
 30
0.0
 11
78.8197
 21
16.6054
 31
0.0
  0
LINE
  8
0
 62
     0
 10
135.97
 20
16.6054
 30
0.0
 11
135.97
 21
15.6049
 31
0.0
  0
LINE
  8
0
 62
     0
 10
135.97
 20
15.6049
 30
0.0
 11
135.17
 21
15.6049
 31
0.0
  0
LINE
  8
0
 62
     0
 10
135.17
 20
15.6049
 30
0.0
 11
135.17
 21
12.5057
 31
0.0
  0
LINE
  8
0
 62
     0
 10
135.17
 20
12.5057
 30
0.0
 11
135.97
 21
12.5057
 31
0.0
  0
LINE
  8
0
 62
     0
 10
135.97
 20
12.5057
 30
0.0
 11
135.97
 21
6.70553
 31
0.0
  0
LINE
  8
0
 62
     0
 10
135.97
 20
6.70553
 30
0.0
 11
135.17
 21
6.70553
 31
0.0
  0
LINE
  8
0
 62
     0
 10
135.17
 20
6.70553
 30
0.0
 11
135.17
 21
3.60497
 31
0.0
  0
LINE
  8
0
 62
     0
 10
135.17
 20
3.60497
 30
0.0
 11
135.97
 21
3.60497
 31
0.0
  0
LINE
  8
0
 62
     0
 10
135.97
 20
3.60497
 30
0.0
 11
135.97
 21
2.60587
 31
0.0
  0
LINE
  8
0
 62
     0
 10
135.97
 20
2.60587
 30
0.0
 11
149.969
 21
2.60587
 31
0.0
  0
LINE
  8
0
 62
     0
 10
149.969
 20
2.60587
 30
0.0
 11
149.969
 21
3.60497
 31
0.0
  0
LINE
  8
0
 62
     0
 10
149.969
 20
3.60497
 30
0.0
 11
150.77
 21
3.60497
 31
0.0
  0
LINE
  8
0
 62
     0
 10
150.77
 20
3.60497
 30
0.0
 11
150.77
 21
6.70553
 31
0.0
  0
LINE
  8
0
 62
     0
 10
150.77
 20
6.70553
 30
0.0
 11
149.969
 21
6.70553
 31
0.0
  0
LINE
  8
0
 62
     0
 10
149.969
 20
6.70553
 30
0.0
 11
149.969
 21
12.5057
 31
0.0
  0
LINE
  8
0
 62
     0
 10
149.969
 20
12.5057
 30
0.0
 11
150.77
 21
12.5057
 31
0.0
  0
LINE
  8
0
 62
     0
 10
150.77
 20
12.5057
 30
0.0
 11
150.77
 21
15.6049
 31
0.0
  0
LINE
  8
0
 62
     0
 10
150.77
 20
15.6049
 30
0.0
 11
149.969
 21
15.6049
 31
0.0
  0
LINE
  8
0
 62
     0
 10
149.969
 20
15.6049
 30
0.0
 11
149.969
 21
16.6054
 31
0.0
  0
LINE
  8
0
 62
     0
 10
149.969
 20
16.6054
 30
0.0
 11
135.97
 21
16.6054
 31
0.0
  0
LINE
  8
0
 62
     0
 10
155.02
 20
16.6054
 30
0.0
 11
155.02
 21
15.6049
 31
0.0
  0
LINE
  8
0
 62
     0
 10
155.02
 20
15.6049
 30
0.0
 11
154.22
 21
15.6049
 31
0.0
  0
LINE
  8
0
 62
     0
 10
154.22
 20
15.6049
 30
0.0
 11
154.22
 21
12.5057
 31
0.0
  0
LINE
  8
0
 62
     0
 10
154.22
 20
12.5057
 30
0.0
 11
155.02
 21
12.5057
 31
0.0
  0
LINE
  8
0
 62
     0
 10
155.02
 20
12.5057
 30
0.0
 11
155.02
 21
6.70553
 31
0.0
  0
LINE
  8
0
 62
     0
 10
155.02
 20
6.70553
 30
0.0
 11
154.22
 21
6.70553
 31
0.0
  0
LINE
  8
0
 62
     0
 10
154.22
 20
6.70553
 30
0.0
 11
154.22
 21
3.60497
 31
0.0
  0
LINE
  8
0
 62
     0
 10
154.22
 20
3.60497
 30
0.0
 11
155.02
 21
3.60497
 31
0.0
  0
LINE
  8
0
 62
     0
 10
155.02
 20
3.60497
 30
0.0
 11
155.02
 21
2.60587
 31
0.0
  0
LINE
  8
0
 62
     0
 10
155.02
 20
2.60587
 30
0.0
 11
169.019
 21
2.60587
 31
0.0
  0
LINE
  8
0
 62
     0
 10
169.019
 20
2.60587
 30
0.0
 11
169.019
 21
3.60497
 31
0.0
  0
LINE
  8
0
 62
     0
 10
169.019
 20
3.60497
 30
0.0
 11
169.82
 21
3.60497
 31
0.0
  0
LINE
  8
0
 62
     0
 10
169.82
 20
3.60497
 30
0.0
 11
169.82
 21
6.70553
 31
0.0
  0
LINE
  8
0
 62
     0
 10
169.82
 20
6.70553
 30
0.0
 11
169.019
 21
6.70553
 31
0.0
  0
LINE
  8
0
 62
     0
 10
169.019
 20
6.70553
 30
0.0
 11
169.019
 21
12.5057
 31
0.0
  0
LINE
  8
0
 62
     0
 10
169.019
 20
12.5057
 30
0.0
 11
169.82
 21
12.5057
 31
0.0
  0
LINE
  8
0
 62
     0
 10
169.82
 20
12.5057
 30
0.0
 11
169.82
 21
15.6049
 31
0.0
  0
LINE
  8
0
 62
     0
 10
169.82
 20
15.6049
 30
0.0
 11
169.019
 21
15.6049
 31
0.0
  0
LINE
  8
0
 62
     0
 10
169.019
 20
15.6049
 30
0.0
 11
169.019
 21
16.6054
 31
0.0
  0
LINE
  8
0
 62
     0
 10
169.019
 20
16.6054
 30
0.0
 11
155.02
 21
16.6054
 31
0.0
  0
LINE
  8
0
 62
     0
 10
174.07
 20
16.6054
 30
0.0
 11
174.07
 21
15.6049
 31
0.0
  0
LINE
  8
0
 62
     0
 10
174.07
 20
15.6049
 30
0.0
 11
173.27
 21
15.6049
 31
0.0
  0
LINE
  8
0
 62
     0
 10
173.27
 20
15.6049
 30
0.0
 11
173.27
 21
12.5057
 31
0.0
  0
LINE
  8
0
 62
     0
 10
173.27
 20
12.5057
 30
0.0
 11
174.07
 21
12.5057
 31
0.0
  0
LINE
  8
0
 62
     0
 10
174.07
 20
12.5057
 30
0.0
 11
174.07
 21
6.70553
 31
0.0
  0
LINE
  8
0
 62
     0
 10
174.07
 20
6.70553
 30
0.0
 11
173.27
 21
6.70553
 31
0.0
  0
LINE
  8
0
 62
     0
 10
173.27
 20
6.70553
 30
0.0
 11
173.27
 21
3.60497
 31
0.0
  0
LINE
  8
0
 62
     0
 10
173.27
 20
3.60497
 30
0.0
 11
174.07
 21
3.60497
 31
0.0
  0
LINE
  8
0
 62
     0
 10
174.07
 20
3.60497
 30
0.0
 11
174.07
 21
2.60587
 31
0.0
  0
LINE
  8
0
 62
     0
 10
174.07
 20
2.60587
 30
0.0
 11
188.069
 21
2.60587
 31
0.0
  0
LINE
  8
0
 62
     0
 10
188.069
 20
2.60587
 30
0.0
 11
188.069
 21
3.60497
 31
0.0
  0
LINE
  8
0
 62
     0
 10
188.069
 20
3.60497
 30
0.0
 11
188.87
 21
3.60497
 31
0.0
  0
LINE
  8
0
 62
     0
 10
188.87
 20
3.60497
 30
0.0
 11
188.87
 21
6.70553
 31
0.0
  0
LINE
  8
0
 62
     0
 10
188.87
 20
6.70553
 30
0.0
 11
188.069
 21
6.70553
 31
0.0
  0
LINE
  8
0
 62
     0
 10
188.069
 20
6.70553
 30
0.0
 11
188.069
 21
12.5057
 31
0.0
  0
LINE
  8
0
 62
     0
 10
188.069
 20
12.5057
 30
0.0
 11
188.87
 21
12.5057
 31
0.0
  0
LINE
  8
0
 62
     0
 10
188.87
 20
12.5057
 30
0.0
 11
188.87
 21
15.6049
 31
0.0
  0
LINE
  8
0
 62
     0
 10
188.87
 20
15.6049
 30
0.0
 11
188.069
 21
15.6049
 31
0.0
  0
LINE
  8
0
 62
     0
 10
188.069
 20
15.6049
 30
0.0
 11
188.069
 21
16.6054
 31
0.0
  0
LINE
  8
0
 62
     0
 10
188.069
 20
16.6054
 30
0.0
 11
174.07
 21
16.6054
 31
0.0
  0
LINE
  8
0
 62
     0
 10
193.12
 20
16.6054
 30
0.0
 11
193.12
 21
15.6049
 31
0.0
  0
LINE
  8
0
 62
     0
 10
193.12
 20
15.6049
 30
0.0
 11
192.32
 21
15.6049
 31
0.0
  0
LINE
  8
0
 62
     0
 10
192.32
 20
15.6049
 30
0.0
 11
192.32
 21
12.5057
 31
0.0
  0
LINE
  8
0
 62
     0
 10
192.32
 20
12.5057
 30
0.0
 11
193.12
 21
12.5057
 31
0.0
  0
LINE
  8
0
 62
     0
 10
193.12
 20
12.5057
 30
0.0
 11
193.12
 21
6.70553
 31
0.0
  0
LINE
  8
0
 62
     0
 10
193.12
 20
6.70553
 30
0.0
 11
192.32
 21
6.70553
 31
0.0
  0
LINE
  8
0
 62
     0
 10
192.32
 20
6.70553
 30
0.0
 11
192.32
 21
3.60497
 31
0.0
  0
LINE
  8
0
 62
     0
 10
192.32
 20
3.60497
 30
0.0
 11
193.12
 21
3.60497
 31
0.0
  0
LINE
  8
0
 62
     0
 10
193.12
 20
3.60497
 30
0.0
 11
193.12
 21
2.60587
 31
0.0
  0
LINE
  8
0
 62
     0
 10
193.12
 20
2.60587
 30
0.0
 11
207.119
 21
2.60587
 31
0.0
  0
LINE
  8
0
 62
     0
 10
207.119
 20
2.60587
 30
0.0
 11
207.119
 21
3.60497
 31
0.0
  0
LINE
  8
0
 62
     0
 10
207.119
 20
3.60497
 30
0.0
 11
207.92
 21
3.60497
 31
0.0
  0
LINE
  8
0
 62
     0
 10
207.92
 20
3.60497
 30
0.0
 11
207.92
 21
6.70553
 31
0.0
  0
LINE
  8
0
 62
     0
 10
207.92
 20
6.70553
 30
0.0
 11
207.119
 21
6.70553
 31
0.0
  0
LINE
  8
0
 62
     0
 10
207.119
 20
6.70553
 30
0.0
 11
207.119
 21
12.5057
 31
0.0
  0
LINE
  8
0
 62
     0
 10
207.119
 20
12.5057
 30
0.0
 11
207.92
 21
12.5057
 31
0.0
  0
LINE
  8
0
 62
     0
 10
207.92
 20
12.5057
 30
0.0
 11
207.92
 21
15.6049
 31
0.0
  0
LINE
  8
0
 62
     0
 10
207.92
 20
15.6049
 30
0.0
 11
207.119
 21
15.6049
 31
0.0
  0
LINE
  8
0
 62
     0
 10
207.119
 20
15.6049
 30
0.0
 11
207.119
 21
16.6054
 31
0.0
  0
LINE
  8
0
 62
     0
 10
207.119
 20
16.6054
 30
0.0
 11
193.12
 21
16.6054
 31
0.0
  0
LINE
  8
0
 62
     0
 10
212.17
 20
16.6054
 30
0.0
 11
212.17
 21
15.6049
 31
0.0
  0
LINE
  8
0
 62
     0
 10
212.17
 20
15.6049
 30
0.0
 11
211.37
 21
15.6049
 31
0.0
  0
LINE
  8
0
 62
     0
 10
211.37
 20
15.6049
 30
0.0
 11
211.37
 21
12.5057
 31
0.0
  0
LINE
  8
0
 62
     0
 10
211.37
 20
12.5057
 30
0.0
 11
212.17
 21
12.5057
 31
0.0
  0
LINE
  8
0
 62
     0
 10
212.17
 20
12.5057
 30
0.0
 11
212.17
 21
6.70553
 31
0.0
  0
LINE
  8
0
 62
     0
 10
212.17
 20
6.70553
 30
0.0
 11
211.37
 21
6.70553
 31
0.0
  0
LINE
  8
0
 62
     0
 10
211.37
 20
6.70553
 30
0.0
 11
211.37
 21
3.60497
 31
0.0
  0
LINE
  8
0
 62
     0
 10
211.37
 20
3.60497
 30
0.0
 11
212.17
 21
3.60497
 31
0.0
  0
LINE
  8
0
 62
     0
 10
212.17
 20
3.60497
 30
0.0
 11
212.17
 21
2.60587
 31
0.0
  0
LINE
  8
0
 62
     0
 10
212.17
 20
2.60587
 30
0.0
 11
226.169
 21
2.60587
 31
0.0
  0
LINE
  8
0
 62
     0
 10
226.169
 20
2.60587
 30
0.0
 11
226.169
 21
3.60497
 31
0.0
  0
LINE
  8
0
 62
     0
 10
226.169
 20
3.60497
 30
0.0
 11
226.97
 21
3.60497
 31
0.0
  0
LINE
  8
0
 62
     0
 10
226.97
 20
3.60497
 30
0.0
 11
226.97
 21
6.70553
 31
0.0
  0
LINE
  8
0
 62
     0
 10
226.97
 20
6.70553
 30
0.0
 11
226.169
 21
6.70553
 31
0.0
  0
LINE
  8
0
 62
     0
 10
226.169
 20
6.70553
 30
0.0
 11
226.169
 21
12.5057
 31
0.0
  0
LINE
  8
0
 62
     0
 10
226.169
 20
12.5057
 30
0.0
 11
226.97
 21
12.5057
 31
0.0
  0
LINE
  8
0
 62
     0
 10
226.97
 20
12.5057
 30
0.0
 11
226.97
 21
15.6049
 31
0.0
  0
LINE
  8
0
 62
     0
 10
226.97
 20
15.6049
 30
0.0
 11
226.169
 21
15.6049
 31
0.0
  0
LINE
  8
0
 62
     0
 10
226.169
 20
15.6049
 30
0.0
 11
226.169
 21
16.6054
 31
0.0
  0
LINE
  8
0
 62
     0
 10
226.169
 20
16.6054
 30
0.0
 11
212.17
 21
16.6054
 31
0.0
  0
LINE
  8
0
 62
     0
 10
2.61965
 20
35.6553
 30
0.0
 11
2.61965
 21
34.6549
 31
0.0
  0
LINE
  8
0
 62
     0
 10
2.61965
 20
34.6549
 30
0.0
 11
1.82039
 21
34.6549
 31
0.0
  0
LINE
  8
0
 62
     0
 10
1.82039
 20
34.6549
 30
0.0
 11
1.82039
 21
31.5557
 31
0.0
  0
LINE
  8
0
 62
     0
 10
1.82039
 20
31.5557
 30
0.0
 11
2.61965
 21
31.5557
 31
0.0
  0
LINE
  8
0
 62
     0
 10
2.61965
 20
31.5557
 30
0.0
 11
2.61965
 21
25.7555
 31
0.0
  0
LINE
  8
0
 62
     0
 10
2.61965
 20
25.7555
 30
0.0
 11
1.82039
 21
25.7555
 31
0.0
  0
LINE
  8
0
 62
     0
 10
1.82039
 20
25.7555
 30
0.0
 11
1.82039
 21
22.655
 31
0.0
  0
LINE
  8
0
 62
     0
 10
1.82039
 20
22.655
 30
0.0
 11
2.61965
 21
22.655
 31
0.0
  0
LINE
  8
0
 62
     0
 10
2.61965
 20
22.655
 30
0.0
 11
2.61965
 21
21.6559
 31
0.0
  0
LINE
  8
0
 62
     0
 10
2.61965
 20
21.6559
 30
0.0
 11
16.6192
 21
21.6559
 31
0.0
  0
LINE
  8
0
 62
     0
 10
16.6192
 20
21.6559
 30
0.0
 11
16.6192
 21
22.655
 31
0.0
  0
LINE
  8
0
 62
     0
 10
16.6192
 20
22.655
 30
0.0
 11
17.4198
 21
22.655
 31
0.0
  0
LINE
  8
0
 62
     0
 10
17.4198
 20
22.655
 30
0.0
 11
17.4198
 21
25.7555
 31
0.0
  0
LINE
  8
0
 62
     0
 10
17.4198
 20
25.7555
 30
0.0
 11
16.6192
 21
25.7555
 31
0.0
  0
LINE
  8
0
 62
     0
 10
16.6192
 20
25.7555
 30
0.0
 11
16.6192
 21
31.5557
 31
0.0
  0
LINE
  8
0
 62
     0
 10
16.6192
 20
31.5557
 30
0.0
 11
17.4198
 21
31.5557
 31
0.0
  0
LINE
  8
0
 62
     0
 10
17.4198
 20
31.5557
 30
0.0
 11
17.4198
 21
34.6549
 31
0.0
  0
LINE
  8
0
 62
     0
 10
17.4198
 20
34.6549
 30
0.0
 11
16.6192
 21
34.6549
 31
0.0
  0
LINE
  8
0
 62
     0
 10
16.6192
 20
34.6549
 30
0.0
 11
16.6192
 21
35.6553
 31
0.0
  0
LINE
  8
0
 62
     0
 10
16.6192
 20
35.6553
 30
0.0
 11
2.61965
 21
35.6553
 31
0.0
  0
LINE
  8
0
 62
     0
 10
21.6697
 20
35.6553
 30
0.0
 11
21.6697
 21
34.6549
 31
0.0
  0
LINE
  8
0
 62
     0
 10
21.6697
 20
34.6549
 30
0.0
 11
20.8704
 21
34.6549
 31
0.0
  0
LINE
  8
0
 62
     0
 10
20.8704
 20
34.6549
 30
0.0
 11
20.8704
 21
31.5557
 31
0.0
  0
LINE
  8
0
 62
     0
 10
20.8704
 20
31.5557
 30
0.0
 11
21.6697
 21
31.5557
 31
0.0
  0
LINE
  8
0
 62
     0
 10
21.6697
 20
31.5557
 30
0.0
 11
21.6697
 21
25.7555
 31
0.0
  0
LINE
  8
0
 62
     0
 10
21.6697
 20
25.7555
 30
0.0
 11
20.8704
 21
25.7555
 31
0.0
  0
LINE
  8
0
 62
     0
 10
20.8704
 20
25.7555
 30
0.0
 11
20.8704
 21
22.655
 31
0.0
  0
LINE
  8
0
 62
     0
 10
20.8704
 20
22.655
 30
0.0
 11
21.6697
 21
22.655
 31
0.0
  0
LINE
  8
0
 62
     0
 10
21.6697
 20
22.655
 30
0.0
 11
21.6697
 21
21.6559
 31
0.0
  0
LINE
  8
0
 62
     0
 10
21.6697
 20
21.6559
 30
0.0
 11
35.669
 21
21.6559
 31
0.0
  0
LINE
  8
0
 62
     0
 10
35.669
 20
21.6559
 30
0.0
 11
35.669
 21
22.655
 31
0.0
  0
LINE
  8
0
 62
     0
 10
35.669
 20
22.655
 30
0.0
 11
36.4698
 21
22.655
 31
0.0
  0
LINE
  8
0
 62
     0
 10
36.4698
 20
22.655
 30
0.0
 11
36.4698
 21
25.7555
 31
0.0
  0
LINE
  8
0
 62
     0
 10
36.4698
 20
25.7555
 30
0.0
 11
35.669
 21
25.7555
 31
0.0
  0
LINE
  8
0
 62
     0
 10
35.669
 20
25.7555
 30
0.0
 11
35.669
 21
31.5557
 31
0.0
  0
LINE
  8
0
 62
     0
 10
35.669
 20
31.5557
 30
0.0
 11
36.4698
 21
31.5557
 31
0.0
  0
LINE
  8
0
 62
     0
 10
36.4698
 20
31.5557
 30
0.0
 11
36.4698
 21
34.6549
 31
0.0
  0
LINE
  8
0
 62
     0
 10
36.4698
 20
34.6549
 30
0.0
 11
35.669
 21
34.6549
 31
0.0
  0
LINE
  8
0
 62
     0
 10
35.669
 20
34.6549
 30
0.0
 11
35.669
 21
35.6553
 31
0.0
  0
LINE
  8
0
 62
     0
 10
35.669
 20
35.6553
 30
0.0
 11
21.6697
 21
35.6553
 31
0.0
  0
LINE
  8
0
 62
     0
 10
40.7197
 20
35.6553
 30
0.0
 11
40.7197
 21
34.6549
 31
0.0
  0
LINE
  8
0
 62
     0
 10
40.7197
 20
34.6549
 30
0.0
 11
39.9203
 21
34.6549
 31
0.0
  0
LINE
  8
0
 62
     0
 10
39.9203
 20
34.6549
 30
0.0
 11
39.9203
 21
31.5557
 31
0.0
  0
LINE
  8
0
 62
     0
 10
39.9203
 20
31.5557
 30
0.0
 11
40.7197
 21
31.5557
 31
0.0
  0
LINE
  8
0
 62
     0
 10
40.7197
 20
31.5557
 30
0.0
 11
40.7197
 21
25.7555
 31
0.0
  0
LINE
  8
0
 62
     0
 10
40.7197
 20
25.7555
 30
0.0
 11
39.9203
 21
25.7555
 31
0.0
  0
LINE
  8
0
 62
     0
 10
39.9203
 20
25.7555
 30
0.0
 11
39.9203
 21
22.655
 31
0.0
  0
LINE
  8
0
 62
     0
 10
39.9203
 20
22.655
 30
0.0
 11
40.7197
 21
22.655
 31
0.0
  0
LINE
  8
0
 62
     0
 10
40.7197
 20
22.655
 30
0.0
 11
40.7197
 21
21.6559
 31
0.0
  0
LINE
  8
0
 62
     0
 10
40.7197
 20
21.6559
 30
0.0
 11
54.719
 21
21.6559
 31
0.0
  0
LINE
  8
0
 62
     0
 10
54.719
 20
21.6559
 30
0.0
 11
54.719
 21
22.655
 31
0.0
  0
LINE
  8
0
 62
     0
 10
54.719
 20
22.655
 30
0.0
 11
55.5198
 21
22.655
 31
0.0
  0
LINE
  8
0
 62
     0
 10
55.5198
 20
22.655
 30
0.0
 11
55.5198
 21
25.7555
 31
0.0
  0
LINE
  8
0
 62
     0
 10
55.5198
 20
25.7555
 30
0.0
 11
54.719
 21
25.7555
 31
0.0
  0
LINE
  8
0
 62
     0
 10
54.719
 20
25.7555
 30
0.0
 11
54.719
 21
31.5557
 31
0.0
  0
LINE
  8
0
 62
     0
 10
54.719
 20
31.5557
 30
0.0
 11
55.5198
 21
31.5557
 31
0.0
  0
LINE
  8
0
 62
     0
 10
55.5198
 20
31.5557
 30
0.0
 11
55.5198
 21
34.6549
 31
0.0
  0
LINE
  8
0
 62
     0
 10
55.5198
 20
34.6549
 30
0.0
 11
54.719
 21
34.6549
 31
0.0
  0
LINE
  8
0
 62
     0
 10
54.719
 20
34.6549
 30
0.0
 11
54.719
 21
35.6553
 31
0.0
  0
LINE
  8
0
 62
     0
 10
54.719
 20
35.6553
 30
0.0
 11
40.7197
 21
35.6553
 31
0.0
  0
LINE
  8
0
 62
     0
 10
59.7697
 20
35.6553
 30
0.0
 11
59.7697
 21
34.6549
 31
0.0
  0
LINE
  8
0
 62
     0
 10
59.7697
 20
34.6549
 30
0.0
 11
58.9703
 21
34.6549
 31
0.0
  0
LINE
  8
0
 62
     0
 10
58.9703
 20
34.6549
 30
0.0
 11
58.9703
 21
31.5557
 31
0.0
  0
LINE
  8
0
 62
     0
 10
58.9703
 20
31.5557
 30
0.0
 11
59.7697
 21
31.5557
 31
0.0
  0
LINE
  8
0
 62
     0
 10
59.7697
 20
31.5557
 30
0.0
 11
59.7697
 21
25.7555
 31
0.0
  0
LINE
  8
0
 62
     0
 10
59.7697
 20
25.7555
 30
0.0
 11
58.9703
 21
25.7555
 31
0.0
  0
LINE
  8
0
 62
     0
 10
58.9703
 20
25.7555
 30
0.0
 11
58.9703
 21
22.655
 31
0.0
  0
LINE
  8
0
 62
     0
 10
58.9703
 20
22.655
 30
0.0
 11
59.7697
 21
22.655
 31
0.0
  0
LINE
  8
0
 62
     0
 10
59.7697
 20
22.655
 30
0.0
 11
59.7697
 21
21.6559
 31
0.0
  0
LINE
  8
0
 62
     0
 10
59.7697
 20
21.6559
 30
0.0
 11
73.769
 21
21.6559
 31
0.0
  0
LINE
  8
0
 62
     0
 10
73.769
 20
21.6559
 30
0.0
 11
73.769
 21
22.655
 31
0.0
  0
LINE
  8
0
 62
     0
 10
73.769
 20
22.655
 30
0.0
 11
74.5698
 21
22.655
 31
0.0
  0
LINE
  8
0
 62
     0
 10
74.5698
 20
22.655
 30
0.0
 11
74.5698
 21
25.7555
 31
0.0
  0
LINE
  8
0
 62
     0
 10
74.5698
 20
25.7555
 30
0.0
 11
73.769
 21
25.7555
 31
0.0
  0
LINE
  8
0
 62
     0
 10
73.769
 20
25.7555
 30
0.0
 11
73.769
 21
31.5557
 31
0.0
  0
LINE
  8
0
 62
     0
 10
73.769
 20
31.5557
 30
0.0
 11
74.5698
 21
31.5557
 31
0.0
  0
LINE
  8
0
 62
     0
 10
74.5698
 20
31.5557
 30
0.0
 11
74.5698
 21
34.6549
 31
0.0
  0
LINE
  8
0
 62
     0
 10
74.5698
 20
34.6549
 30
0.0
 11
73.769
 21
34.6549
 31
0.0
  0
LINE
  8
0
 62
     0
 10
73.769
 20
34.6549
 30
0.0
 11
73.769
 21
35.6553
 31
0.0
  0
LINE
  8
0
 62
     0
 10
73.769
 20
35.6553
 30
0.0
 11
59.7697
 21
35.6553
 31
0.0
  0
LINE
  8
0
 62
     0
 10
78.8197
 20
35.6553
 30
0.0
 11
78.8197
 21
34.6549
 31
0.0
  0
LINE
  8
0
 62
     0
 10
78.8197
 20
34.6549
 30
0.0
 11
78.0203
 21
34.6549
 31
0.0
  0
LINE
  8
0
 62
     0
 10
78.0203
 20
34.6549
 30
0.0
 11
78.0203
 21
31.5557
 31
0.0
  0
LINE
  8
0
 62
     0
 10
78.0203
 20
31.5557
 30
0.0
 11
78.8197
 21
31.5557
 31
0.0
  0
LINE
  8
0
 62
     0
 10
78.8197
 20
31.5557
 30
0.0
 11
78.8197
 21
25.7555
 31
0.0
  0
LINE
  8
0
 62
     0
 10
78.8197
 20
25.7555
 30
0.0
 11
78.0203
 21
25.7555
 31
0.0
  0
LINE
  8
0
 62
     0
 10
78.0203
 20
25.7555
 30
0.0
 11
78.0203
 21
22.655
 31
0.0
  0
LINE
  8
0
 62
     0
 10
78.0203
 20
22.655
 30
0.0
 11
78.8197
 21
22.655
 31
0.0
  0
LINE
  8
0
 62
     0
 10
78.8197
 20
22.655
 30
0.0
 11
78.8197
 21
21.6559
 31
0.0
  0
LINE
  8
0
 62
     0
 10
78.8197
 20
21.6559
 30
0.0
 11
92.819
 21
21.6559
 31
0.0
  0
LINE
  8
0
 62
     0
 10
92.819
 20
21.6559
 30
0.0
 11
92.819
 21
22.655
 31
0.0
  0
LINE
  8
0
 62
     0
 10
92.819
 20
22.655
 30
0.0
 11
93.6184
 21
22.655
 31
0.0
  0
LINE
  8
0
 62
     0
 10
93.6184
 20
22.655
 30
0.0
 11
93.6184
 21
25.7555
 31
0.0
  0
LINE
  8
0
 62
     0
 10
93.6184
 20
25.7555
 30
0.0
 11
92.819
 21
25.7555
 31
0.0
  0
LINE
  8
0
 62
     0
 10
92.819
 20
25.7555
 30
0.0
 11
92.819
 21
31.5557
 31
0.0
  0
LINE
  8
0
 62
     0
 10
92.819
 20
31.5557
 30
0.0
 11
93.6184
 21
31.5557
 31
0.0
  0
LINE
  8
0
 62
     0
 10
93.6184
 20
31.5557
 30
0.0
 11
93.6184
 21
34.6549
 31
0.0
  0
LINE
  8
0
 62
     0
 10
93.6184
 20
34.6549
 30
0.0
 11
92.819
 21
34.6549
 31
0.0
  0
LINE
  8
0
 62
     0
 10
92.819
 20
34.6549
 30
0.0
 11
92.819
 21
35.6553
 31
0.0
  0
LINE
  8
0
 62
     0
 10
92.819
 20
35.6553
 30
0.0
 11
78.8197
 21
35.6553
 31
0.0
  0
LINE
  8
0
 62
     0
 10
97.8683
 20
35.6553
 30
0.0
 11
97.8683
 21
34.6549
 31
0.0
  0
LINE
  8
0
 62
     0
 10
97.8683
 20
34.6549
 30
0.0
 11
97.0703
 21
34.6549
 31
0.0
  0
LINE
  8
0
 62
     0
 10
97.0703
 20
34.6549
 30
0.0
 11
97.0703
 21
31.5557
 31
0.0
  0
LINE
  8
0
 62
     0
 10
97.0703
 20
31.5557
 30
0.0
 11
97.8683
 21
31.5557
 31
0.0
  0
LINE
  8
0
 62
     0
 10
97.8683
 20
31.5557
 30
0.0
 11
97.8683
 21
25.7555
 31
0.0
  0
LINE
  8
0
 62
     0
 10
97.8683
 20
25.7555
 30
0.0
 11
97.0703
 21
25.7555
 31
0.0
  0
LINE
  8
0
 62
     0
 10
97.0703
 20
25.7555
 30
0.0
 11
97.0703
 21
22.655
 31
0.0
  0
LINE
  8
0
 62
     0
 10
97.0703
 20
22.655
 30
0.0
 11
97.8683
 21
22.655
 31
0.0
  0
LINE
  8
0
 62
     0
 10
97.8683
 20
22.655
 30
0.0
 11
97.8683
 21
21.6559
 31
0.0
  0
LINE
  8
0
 62
     0
 10
97.8683
 20
21.6559
 30
0.0
 11
111.869
 21
21.6559
 31
0.0
  0
LINE
  8
0
 62
     0
 10
111.869
 20
21.6559
 30
0.0
 11
111.869
 21
22.655
 31
0.0
  0
LINE
  8
0
 62
     0
 10
111.869
 20
22.655
 30
0.0
 11
112.668
 21
22.655
 31
0.0
  0
LINE
  8
0
 62
     0
 10
112.668
 20
22.655
 30
0.0
 11
112.668
 21
25.7555
 31
0.0
  0
LINE
  8
0
 62
     0
 10
112.668
 20
25.7555
 30
0.0
 11
111.869
 21
25.7555
 31
0.0
  0
LINE
  8
0
 62
     0
 10
111.869
 20
25.7555
 30
0.0
 11
111.869
 21
31.5557
 31
0.0
  0
LINE
  8
0
 62
     0
 10
111.869
 20
31.5557
 30
0.0
 11
112.668
 21
31.5557
 31
0.0
  0
LINE
  8
0
 62
     0
 10
112.668
 20
31.5557
 30
0.0
 11
112.668
 21
34.6549
 31
0.0
  0
LINE
  8
0
 62
     0
 10
112.668
 20
34.6549
 30
0.0
 11
111.869
 21
34.6549
 31
0.0
  0
LINE
  8
0
 62
     0
 10
111.869
 20
34.6549
 30
0.0
 11
111.869
 21
35.6553
 31
0.0
  0
LINE
  8
0
 62
     0
 10
111.869
 20
35.6553
 30
0.0
 11
97.8683
 21
35.6553
 31
0.0
  0
LINE
  8
0
 62
     0
 10
116.918
 20
35.6553
 30
0.0
 11
116.918
 21
34.6549
 31
0.0
  0
LINE
  8
0
 62
     0
 10
116.918
 20
34.6549
 30
0.0
 11
116.119
 21
34.6549
 31
0.0
  0
LINE
  8
0
 62
     0
 10
116.119
 20
34.6549
 30
0.0
 11
116.119
 21
31.5557
 31
0.0
  0
LINE
  8
0
 62
     0
 10
116.119
 20
31.5557
 30
0.0
 11
116.918
 21
31.5557
 31
0.0
  0
LINE
  8
0
 62
     0
 10
116.918
 20
31.5557
 30
0.0
 11
116.918
 21
25.7555
 31
0.0
  0
LINE
  8
0
 62
     0
 10
116.918
 20
25.7555
 30
0.0
 11
116.119
 21
25.7555
 31
0.0
  0
LINE
  8
0
 62
     0
 10
116.119
 20
25.7555
 30
0.0
 11
116.119
 21
22.655
 31
0.0
  0
LINE
  8
0
 62
     0
 10
116.119
 20
22.655
 30
0.0
 11
116.918
 21
22.655
 31
0.0
  0
LINE
  8
0
 62
     0
 10
116.918
 20
22.655
 30
0.0
 11
116.918
 21
21.6559
 31
0.0
  0
LINE
  8
0
 62
     0
 10
116.918
 20
21.6559
 30
0.0
 11
130.919
 21
21.6559
 31
0.0
  0
LINE
  8
0
 62
     0
 10
130.919
 20
21.6559
 30
0.0
 11
130.919
 21
22.655
 31
0.0
  0
LINE
  8
0
 62
     0
 10
130.919
 20
22.655
 30
0.0
 11
131.72
 21
22.655
 31
0.0
  0
LINE
  8
0
 62
     0
 10
131.72
 20
22.655
 30
0.0
 11
131.72
 21
25.7555
 31
0.0
  0
LINE
  8
0
 62
     0
 10
131.72
 20
25.7555
 30
0.0
 11
130.919
 21
25.7555
 31
0.0
  0
LINE
  8
0
 62
     0
 10
130.919
 20
25.7555
 30
0.0
 11
130.919
 21
31.5557
 31
0.0
  0
LINE
  8
0
 62
     0
 10
130.919
 20
31.5557
 30
0.0
 11
131.72
 21
31.5557
 31
0.0
  0
LINE
  8
0
 62
     0
 10
131.72
 20
31.5557
 30
0.0
 11
131.72
 21
34.6549
 31
0.0
  0
LINE
  8
0
 62
     0
 10
131.72
 20
34.6549
 30
0.0
 11
130.919
 21
34.6549
 31
0.0
  0
LINE
  8
0
 62
     0
 10
130.919
 20
34.6549
 30
0.0
 11
130.919
 21
35.6553
 31
0.0
  0
LINE
  8
0
 62
     0
 10
130.919
 20
35.6553
 30
0.0
 11
116.918
 21
35.6553
 31
0.0
  0
LINE
  8
0
 62
     0
 10
135.97
 20
35.6553
 30
0.0
 11
135.97
 21
34.6549
 31
0.0
  0
LINE
  8
0
 62
     0
 10
135.97
 20
34.6549
 30
0.0
 11
135.17
 21
34.6549
 31
0.0
  0
LINE
  8
0
 62
     0
 10
135.17
 20
34.6549
 30
0.0
 11
135.17
 21
31.5557
 31
0.0
  0
LINE
  8
0
 62
     0
 10
135.17
 20
31.5557
 30
0.0
 11
135.97
 21
31.5557
 31
0.0
  0
LINE
  8
0
 62
     0
 10
135.97
 20
31.5557
 30
0.0
 11
135.97
 21
25.7555
 31
0.0
  0
LINE
  8
0
 62
     0
 10
135.97
 20
25.7555
 30
0.0
 11
135.17
 21
25.7555
 31
0.0
  0
LINE
  8
0
 62
     0
 10
135.17
 20
25.7555
 30
0.0
 11
135.17
 21
22.655
 31
0.0
  0
LINE
  8
0
 62
     0
 10
135.17
 20
22.655
 30
0.0
 11
135.97
 21
22.655
 31
0.0
  0
LINE
  8
0
 62
     0
 10
135.97
 20
22.655
 30
0.0
 11
135.97
 21
21.6559
 31
0.0
  0
LINE
  8
0
 62
     0
 10
135.97
 20
21.6559
 30
0.0
 11
149.969
 21
21.6559
 31
0.0
  0
LINE
  8
0
 62
     0
 10
149.969
 20
21.6559
 30
0.0
 11
149.969
 21
22.655
 31
0.0
  0
LINE
  8
0
 62
     0
 10
149.969
 20
22.655
 30
0.0
 11
150.77
 21
22.655
 31
0.0
  0
LINE
  8
0
 62
     0
 10
150.77
 20
22.655
 30
0.0
 11
150.77
 21
25.7555
 31
0.0
  0
LINE
  8
0
 62
     0
 10
150.77
 20
25.7555
 30
0.0
 11
149.969
 21
25.7555
 31
0.0
  0
LINE
  8
0
 62
     0
 10
149.969
 20
25.7555
 30
0.0
 11
149.969
 21
31.5557
 31
0.0
  0
LINE
  8
0
 62
     0
 10
149.969
 20
31.5557
 30
0.0
 11
150.77
 21
31.5557
 31
0.0
  0
LINE
  8
0
 62
     0
 10
150.77
 20
31.5557
 30
0.0
 11
150.77
 21
34.6549
 31
0.0
  0
LINE
  8
0
 62
     0
 10
150.77
 20
34.6549
 30
0.0
 11
149.969
 21
34.6549
 31
0.0
  0
LINE
  8
0
 62
     0
 10
149.969
 20
34.6549
 30
0.0
 11
149.969
 21
35.6553
 31
0.0
  0
LINE
  8
0
 62
     0
 10
149.969
 20
35.6553
 30
0.0
 11
135.97
 21
35.6553
 31
0.0
  0
LINE
  8
0
 62
     0
 10
155.02
 20
35.6553
 30
0.0
 11
155.02
 21
34.6549
 31
0.0
  0
LINE
  8
0
 62
     0
 10
155.02
 20
34.6549
 30
0.0
 11
154.22
 21
34.6549
 31
0.0
  0
LINE
  8
0
 62
     0
 10
154.22
 20
34.6549
 30
0.0
 11
154.22
 21
31.5557
 31
0.0
  0
LINE
  8
0
 62
     0
 10
154.22
 20
31.5557
 30
0.0
 11
155.02
 21
31.5557
 31
0.0
  0
LINE
  8
0
 62
     0
 10
155.02
 20
31.5557
 30
0.0
 11
155.02
 21
25.7555
 31
0.0
  0
LINE
  8
0
 62
     0
 10
155.02
 20
25.7555
 30
0.0
 11
154.22
 21
25.7555
 31
0.0
  0
LINE
  8
0
 62
     0
 10
154.22
 20
25.7555
 30
0.0
 11
154.22
 21
22.655
 31
0.0
  0
LINE
  8
0
 62
     0
 10
154.22
 20
22.655
 30
0.0
 11
155.02
 21
22.655
 31
0.0
  0
LINE
  8
0
 62
     0
 10
155.02
 20
22.655
 30
0.0
 11
155.02
 21
21.6559
 31
0.0
  0
LINE
  8
0
 62
     0
 10
155.02
 20
21.6559
 30
0.0
 11
169.019
 21
21.6559
 31
0.0
  0
LINE
  8
0
 62
     0
 10
169.019
 20
21.6559
 30
0.0
 11
169.019
 21
22.655
 31
0.0
  0
LINE
  8
0
 62
     0
 10
169.019
 20
22.655
 30
0.0
 11
169.82
 21
22.655
 31
0.0
  0
LINE
  8
0
 62
     0
 10
169.82
 20
22.655
 30
0.0
 11
169.82
 21
25.7555
 31
0.0
  0
LINE
  8
0
 62
     0
 10
169.82
 20
25.7555
 30
0.0
 11
169.019
 21
25.7555
 31
0.0
  0
LINE
  8
0
 62
     0
 10
169.019
 20
25.7555
 30
0.0
 11
169.019
 21
31.5557
 31
0.0
  0
LINE
  8
0
 62
     0
 10
169.019
 20
31.5557
 30
0.0
 11
169.82
 21
31.5557
 31
0.0
  0
LINE
  8
0
 62
     0
 10
169.82
 20
31.5557
 30
0.0
 11
169.82
 21
34.6549
 31
0.0
  0
LINE
  8
0
 62
     0
 10
169.82
 20
34.6549
 30
0.0
 11
169.019
 21
34.6549
 31
0.0
  0
LINE
  8
0
 62
     0
 10
169.019
 20
34.6549
 30
0.0
 11
169.019
 21
35.6553
 31
0.0
  0
LINE
  8
0
 62
     0
 10
169.019
 20
35.6553
 30
0.0
 11
155.02
 21
35.6553
 31
0.0
  0
LINE
  8
0
 62
     0
 10
174.07
 20
35.6553
 30
0.0
 11
174.07
 21
34.6549
 31
0.0
  0
LINE
  8
0
 62
     0
 10
174.07
 20
34.6549
 30
0.0
 11
173.27
 21
34.6549
 31
0.0
  0
LINE
  8
0
 62
     0
 10
173.27
 20
34.6549
 30
0.0
 11
173.27
 21
31.5557
 31
0.0
  0
LINE
  8
0
 62
     0
 10
173.27
 20
31.5557
 30
0.0
 11
174.07
 21
31.5557
 31
0.0
  0
LINE
  8
0
 62
     0
 10
174.07
 20
31.5557
 30
0.0
 11
174.07
 21
25.7555
 31
0.0
  0
LINE
  8
0
 62
     0
 10
174.07
 20
25.7555
 30
0.0
 11
173.27
 21
25.7555
 31
0.0
  0
LINE
  8
0
 62
     0
 10
173.27
 20
25.7555
 30
0.0
 11
173.27
 21
22.655
 31
0.0
  0
LINE
  8
0
 62
     0
 10
173.27
 20
22.655
 30
0.0
 11
174.07
 21
22.655
 31
0.0
  0
LINE
  8
0
 62
     0
 10
174.07
 20
22.655
 30
0.0
 11
174.07
 21
21.6559
 31
0.0
  0
LINE
  8
0
 62
     0
 10
174.07
 20
21.6559
 30
0.0
 11
188.069
 21
21.6559
 31
0.0
  0
LINE
  8
0
 62
     0
 10
188.069
 20
21.6559
 30
0.0
 11
188.069
 21
22.655
 31
0.0
  0
LINE
  8
0
 62
     0
 10
188.069
 20
22.655
 30
0.0
 11
188.87
 21
22.655
 31
0.0
  0
LINE
  8
0
 62
     0
 10
188.87
 20
22.655
 30
0.0
 11
188.87
 21
25.7555
 31
0.0
  0
LINE
  8
0
 62
     0
 10
188.87
 20
25.7555
 30
0.0
 11
188.069
 21
25.7555
 31
0.0
  0
LINE
  8
0
 62
     0
 10
188.069
 20
25.7555
 30
0.0
 11
188.069
 21
31.5557
 31
0.0
  0
LINE
  8
0
 62
     0
 10
188.069
 20
31.5557
 30
0.0
 11
188.87
 21
31.5557
 31
0.0
  0
LINE
  8
0
 62
     0
 10
188.87
 20
31.5557
 30
0.0
 11
188.87
 21
34.6549
 31
0.0
  0
LINE
  8
0
 62
     0
 10
188.87
 20
34.6549
 30
0.0
 11
188.069
 21
34.6549
 31
0.0
  0
LINE
  8
0
 62
     0
 10
188.069
 20
34.6549
 30
0.0
 11
188.069
 21
35.6553
 31
0.0
  0
LINE
  8
0
 62
     0
 10
188.069
 20
35.6553
 30
0.0
 11
174.07
 21
35.6553
 31
0.0
  0
LINE
  8
0
 62
     0
 10
193.12
 20
35.6553
 30
0.0
 11
193.12
 21
34.6549
 31
0.0
  0
LINE
  8
0
 62
     0
 10
193.12
 20
34.6549
 30
0.0
 11
192.32
 21
34.6549
 31
0.0
  0
LINE
  8
0
 62
     0
 10
192.32
 20
34.6549
 30
0.0
 11
192.32
 21
31.5557
 31
0.0
  0
LINE
  8
0
 62
     0
 10
192.32
 20
31.5557
 30
0.0
 11
193.12
 21
31.5557
 31
0.0
  0
LINE
  8
0
 62
     0
 10
193.12
 20
31.5557
 30
0.0
 11
193.12
 21
25.7555
 31
0.0
  0
LINE
  8
0
 62
     0
 10
193.12
 20
25.7555
 30
0.0
 11
192.32
 21
25.7555
 31
0.0
  0
LINE
  8
0
 62
     0
 10
192.32
 20
25.7555
 30
0.0
 11
192.32
 21
22.655
 31
0.0
  0
LINE
  8
0
 62
     0
 10
192.32
 20
22.655
 30
0.0
 11
193.12
 21
22.655
 31
0.0
  0
LINE
  8
0
 62
     0
 10
193.12
 20
22.655
 30
0.0
 11
193.12
 21
21.6559
 31
0.0
  0
LINE
  8
0
 62
     0
 10
193.12
 20
21.6559
 30
0.0
 11
207.119
 21
21.6559
 31
0.0
  0
LINE
  8
0
 62
     0
 10
207.119
 20
21.6559
 30
0.0
 11
207.119
 21
22.655
 31
0.0
  0
LINE
  8
0
 62
     0
 10
207.119
 20
22.655
 30
0.0
 11
207.92
 21
22.655
 31
0.0
  0
LINE
  8
0
 62
     0
 10
207.92
 20
22.655
 30
0.0
 11
207.92
 21
25.7555
 31
0.0
  0
LINE
  8
0
 62
     0
 10
207.92
 20
25.7555
 30
0.0
 11
207.119
 21
25.7555
 31
0.0
  0
LINE
  8
0
 62
     0
 10
207.119
 20
25.7555
 30
0.0
 11
207.119
 21
31.5557
 31
0.0
  0
LINE
  8
0
 62
     0
 10
207.119
 20
31.5557
 30
0.0
 11
207.92
 21
31.5557
 31
0.0
  0
LINE
  8
0
 62
     0
 10
207.92
 20
31.5557
 30
0.0
 11
207.92
 21
34.6549
 31
0.0
  0
LINE
  8
0
 62
     0
 10
207.92
 20
34.6549
 30
0.0
 11
207.119
 21
34.6549
 31
0.0
  0
LINE
  8
0
 62
     0
 10
207.119
 20
34.6549
 30
0.0
 11
207.119
 21
35.6553
 31
0.0
  0
LINE
  8
0
 62
     0
 10
207.119
 20
35.6553
 30
0.0
 11
193.12
 21
35.6553
 31
0.0
  0
LINE
  8
0
 62
     0
 10
212.17
 20
35.6553
 30
0.0
 11
212.17
 21
34.6549
 31
0.0
  0
LINE
  8
0
 62
     0
 10
212.17
 20
34.6549
 30
0.0
 11
211.37
 21
34.6549
 31
0.0
  0
LINE
  8
0
 62
     0
 10
211.37
 20
34.6549
 30
0.0
 11
211.37
 21
31.5557
 31
0.0
  0
LINE
  8
0
 62
     0
 10
211.37
 20
31.5557
 30
0.0
 11
212.17
 21
31.5557
 31
0.0
  0
LINE
  8
0
 62
     0
 10
212.17
 20
31.5557
 30
0.0
 11
212.17
 21
25.7555
 31
0.0
  0
LINE
  8
0
 62
     0
 10
212.17
 20
25.7555
 30
0.0
 11
211.37
 21
25.7555
 31
0.0
  0
LINE
  8
0
 62
     0
 10
211.37
 20
25.7555
 30
0.0
 11
211.37
 21
22.655
 31
0.0
  0
LINE
  8
0
 62
     0
 10
211.37
 20
22.655
 30
0.0
 11
212.17
 21
22.655
 31
0.0
  0
LINE
  8
0
 62
     0
 10
212.17
 20
22.655
 30
0.0
 11
212.17
 21
21.6559
 31
0.0
  0
LINE
  8
0
 62
     0
 10
212.17
 20
21.6559
 30
0.0
 11
226.169
 21
21.6559
 31
0.0
  0
LINE
  8
0
 62
     0
 10
226.169
 20
21.6559
 30
0.0
 11
226.169
 21
22.655
 31
0.0
  0
LINE
  8
0
 62
     0
 10
226.169
 20
22.655
 30
0.0
 11
226.97
 21
22.655
 31
0.0
  0
LINE
  8
0
 62
     0
 10
226.97
 20
22.655
 30
0.0
 11
226.97
 21
25.7555
 31
0.0
  0
LINE
  8
0
 62
     0
 10
226.97
 20
25.7555
 30
0.0
 11
226.169
 21
25.7555
 31
0.0
  0
LINE
  8
0
 62
     0
 10
226.169
 20
25.7555
 30
0.0
 11
226.169
 21
31.5557
 31
0.0
  0
LINE
  8
0
 62
     0
 10
226.169
 20
31.5557
 30
0.0
 11
226.97
 21
31.5557
 31
0.0
  0
LINE
  8
0
 62
     0
 10
226.97
 20
31.5557
 30
0.0
 11
226.97
 21
34.6549
 31
0.0
  0
LINE
  8
0
 62
     0
 10
226.97
 20
34.6549
 30
0.0
 11
226.169
 21
34.6549
 31
0.0
  0
LINE
  8
0
 62
     0
 10
226.169
 20
34.6549
 30
0.0
 11
226.169
 21
35.6553
 31
0.0
  0
LINE
  8
0
 62
     0
 10
226.169
 20
35.6553
 30
0.0
 11
212.17
 21
35.6553
 31
0.0
  0
LINE
  8
0
 62
     0
 10
2.61965
 20
54.7053
 30
0.0
 11
2.61965
 21
53.7048
 31
0.0
  0
LINE
  8
0
 62
     0
 10
2.61965
 20
53.7048
 30
0.0
 11
1.82039
 21
53.7048
 31
0.0
  0
LINE
  8
0
 62
     0
 10
1.82039
 20
53.7048
 30
0.0
 11
1.82039
 21
50.6056
 31
0.0
  0
LINE
  8
0
 62
     0
 10
1.82039
 20
50.6056
 30
0.0
 11
2.61965
 21
50.6056
 31
0.0
  0
LINE
  8
0
 62
     0
 10
2.61965
 20
50.6056
 30
0.0
 11
2.61965
 21
44.8056
 31
0.0
  0
LINE
  8
0
 62
     0
 10
2.61965
 20
44.8056
 30
0.0
 11
1.82039
 21
44.8056
 31
0.0
  0
LINE
  8
0
 62
     0
 10
1.82039
 20
44.8056
 30
0.0
 11
1.82039
 21
41.705
 31
0.0
  0
LINE
  8
0
 62
     0
 10
1.82039
 20
41.705
 30
0.0
 11
2.61965
 21
41.705
 31
0.0
  0
LINE
  8
0
 62
     0
 10
2.61965
 20
41.705
 30
0.0
 11
2.61965
 21
40.706
 31
0.0
  0
LINE
  8
0
 62
     0
 10
2.61965
 20
40.706
 30
0.0
 11
16.6192
 21
40.706
 31
0.0
  0
LINE
  8
0
 62
     0
 10
16.6192
 20
40.706
 30
0.0
 11
16.6192
 21
41.705
 31
0.0
  0
LINE
  8
0
 62
     0
 10
16.6192
 20
41.705
 30
0.0
 11
17.4198
 21
41.705
 31
0.0
  0
LINE
  8
0
 62
     0
 10
17.4198
 20
41.705
 30
0.0
 11
17.4198
 21
44.8056
 31
0.0
  0
LINE
  8
0
 62
     0
 10
17.4198
 20
44.8056
 30
0.0
 11
16.6192
 21
44.8056
 31
0.0
  0
LINE
  8
0
 62
     0
 10
16.6192
 20
44.8056
 30
0.0
 11
16.6192
 21
50.6056
 31
0.0
  0
LINE
  8
0
 62
     0
 10
16.6192
 20
50.6056
 30
0.0
 11
17.4198
 21
50.6056
 31
0.0
  0
LINE
  8
0
 62
     0
 10
17.4198
 20
50.6056
 30
0.0
 11
17.4198
 21
53.7048
 31
0.0
  0
LINE
  8
0
 62
     0
 10
17.4198
 20
53.7048
 30
0.0
 11
16.6192
 21
53.7048
 31
0.0
  0
LINE
  8
0
 62
     0
 10
16.6192
 20
53.7048
 30
0.0
 11
16.6192
 21
54.7053
 31
0.0
  0
LINE
  8
0
 62
     0
 10
16.6192
 20
54.7053
 30
0.0
 11
2.61965
 21
54.7053
 31
0.0
  0
LINE
  8
0
 62
     0
 10
21.6697
 20
54.7053
 30
0.0
 11
21.6697
 21
53.7048
 31
0.0
  0
LINE
  8
0
 62
     0
 10
21.6697
 20
53.7048
 30
0.0
 11
20.8704
 21
53.7048
 31
0.0
  0
LINE
  8
0
 62
     0
 10
20.8704
 20
53.7048
 30
0.0
 11
20.8704
 21
50.6056
 31
0.0
  0
LINE
  8
0
 62
     0
 10
20.8704
 20
50.6056
 30
0.0
 11
21.6697
 21
50.6056
 31
0.0
  0
LINE
  8
0
 62
     0
 10
21.6697
 20
50.6056
 30
0.0
 11
21.6697
 21
44.8056
 31
0.0
  0
LINE
  8
0
 62
     0
 10
21.6697
 20
44.8056
 30
0.0
 11
20.8704
 21
44.8056
 31
0.0
  0
LINE
  8
0
 62
     0
 10
20.8704
 20
44.8056
 30
0.0
 11
20.8704
 21
41.705
 31
0.0
  0
LINE
  8
0
 62
     0
 10
20.8704
 20
41.705
 30
0.0
 11
21.6697
 21
41.705
 31
0.0
  0
LINE
  8
0
 62
     0
 10
21.6697
 20
41.705
 30
0.0
 11
21.6697
 21
40.706
 31
0.0
  0
LINE
  8
0
 62
     0
 10
21.6697
 20
40.706
 30
0.0
 11
35.669
 21
40.706
 31
0.0
  0
LINE
  8
0
 62
     0
 10
35.669
 20
40.706
 30
0.0
 11
35.669
 21
41.705
 31
0.0
  0
LINE
  8
0
 62
     0
 10
35.669
 20
41.705
 30
0.0
 11
36.4698
 21
41.705
 31
0.0
  0
LINE
  8
0
 62
     0
 10
36.4698
 20
41.705
 30
0.0
 11
36.4698
 21
44.8056
 31
0.0
  0
LINE
  8
0
 62
     0
 10
36.4698
 20
44.8056
 30
0.0
 11
35.669
 21
44.8056
 31
0.0
  0
LINE
  8
0
 62
     0
 10
35.669
 20
44.8056
 30
0.0
 11
35.669
 21
50.6056
 31
0.0
  0
LINE
  8
0
 62
     0
 10
35.669
 20
50.6056
 30
0.0
 11
36.4698
 21
50.6056
 31
0.0
  0
LINE
  8
0
 62
     0
 10
36.4698
 20
50.6056
 30
0.0
 11
36.4698
 21
53.7048
 31
0.0
  0
LINE
  8
0
 62
     0
 10
36.4698
 20
53.7048
 30
0.0
 11
35.669
 21
53.7048
 31
0.0
  0
LINE
  8
0
 62
     0
 10
35.669
 20
53.7048
 30
0.0
 11
35.669
 21
54.7053
 31
0.0
  0
LINE
  8
0
 62
     0
 10
35.669
 20
54.7053
 30
0.0
 11
21.6697
 21
54.7053
 31
0.0
  0
LINE
  8
0
 62
     0
 10
40.7197
 20
54.7053
 30
0.0
 11
40.7197
 21
53.7048
 31
0.0
  0
LINE
  8
0
 62
     0
 10
40.7197
 20
53.7048
 30
0.0
 11
39.9203
 21
53.7048
 31
0.0
  0
LINE
  8
0
 62
     0
 10
39.9203
 20
53.7048
 30
0.0
 11
39.9203
 21
50.6056
 31
0.0
  0
LINE
  8
0
 62
     0
 10
39.9203
 20
50.6056
 30
0.0
 11
40.7197
 21
50.6056
 31
0.0
  0
LINE
  8
0
 62
     0
 10
40.7197
 20
50.6056
 30
0.0
 11
40.7197
 21
44.8056
 31
0.0
  0
LINE
  8
0
 62
     0
 10
40.7197
 20
44.8056
 30
0.0
 11
39.9203
 21
44.8056
 31
0.0
  0
LINE
  8
0
 62
     0
 10
39.9203
 20
44.8056
 30
0.0
 11
39.9203
 21
41.705
 31
0.0
  0
LINE
  8
0
 62
     0
 10
39.9203
 20
41.705
 30
0.0
 11
40.7197
 21
41.705
 31
0.0
  0
LINE
  8
0
 62
     0
 10
40.7197
 20
41.705
 30
0.0
 11
40.7197
 21
40.706
 31
0.0
  0
LINE
  8
0
 62
     0
 10
40.7197
 20
40.706
 30
0.0
 11
54.719
 21
40.706
 31
0.0
  0
LINE
  8
0
 62
     0
 10
54.719
 20
40.706
 30
0.0
 11
54.719
 21
41.705
 31
0.0
  0
LINE
  8
0
 62
     0
 10
54.719
 20
41.705
 30
0.0
 11
55.5198
 21
41.705
 31
0.0
  0
LINE
  8
0
 62
     0
 10
55.5198
 20
41.705
 30
0.0
 11
55.5198
 21
44.8056
 31
0.0
  0
LINE
  8
0
 62
     0
 10
55.5198
 20
44.8056
 30
0.0
 11
54.719
 21
44.8056
 31
0.0
  0
LINE
  8
0
 62
     0
 10
54.719
 20
44.8056
 30
0.0
 11
54.719
 21
50.6056
 31
0.0
  0
LINE
  8
0
 62
     0
 10
54.719
 20
50.6056
 30
0.0
 11
55.5198
 21
50.6056
 31
0.0
  0
LINE
  8
0
 62
     0
 10
55.5198
 20
50.6056
 30
0.0
 11
55.5198
 21
53.7048
 31
0.0
  0
LINE
  8
0
 62
     0
 10
55.5198
 20
53.7048
 30
0.0
 11
54.719
 21
53.7048
 31
0.0
  0
LINE
  8
0
 62
     0
 10
54.719
 20
53.7048
 30
0.0
 11
54.719
 21
54.7053
 31
0.0
  0
LINE
  8
0
 62
     0
 10
54.719
 20
54.7053
 30
0.0
 11
40.7197
 21
54.7053
 31
0.0
  0
LINE
  8
0
 62
     0
 10
59.7697
 20
54.7053
 30
0.0
 11
59.7697
 21
53.7048
 31
0.0
  0
LINE
  8
0
 62
     0
 10
59.7697
 20
53.7048
 30
0.0
 11
58.9703
 21
53.7048
 31
0.0
  0
LINE
  8
0
 62
     0
 10
58.9703
 20
53.7048
 30
0.0
 11
58.9703
 21
50.6056
 31
0.0
  0
LINE
  8
0
 62
     0
 10
58.9703
 20
50.6056
 30
0.0
 11
59.7697
 21
50.6056
 31
0.0
  0
LINE
  8
0
 62
     0
 10
59.7697
 20
50.6056
 30
0.0
 11
59.7697
 21
44.8056
 31
0.0
  0
LINE
  8
0
 62
     0
 10
59.7697
 20
44.8056
 30
0.0
 11
58.9703
 21
44.8056
 31
0.0
  0
LINE
  8
0
 62
     0
 10
58.9703
 20
44.8056
 30
0.0
 11
58.9703
 21
41.705
 31
0.0
  0
LINE
  8
0
 62
     0
 10
58.9703
 20
41.705
 30
0.0
 11
59.7697
 21
41.705
 31
0.0
  0
LINE
  8
0
 62
     0
 10
59.7697
 20
41.705
 30
0.0
 11
59.7697
 21
40.706
 31
0.0
  0
LINE
  8
0
 62
     0
 10
59.7697
 20
40.706
 30
0.0
 11
73.769
 21
40.706
 31
0.0
  0
LINE
  8
0
 62
     0
 10
73.769
 20
40.706
 30
0.0
 11
73.769
 21
41.705
 31
0.0
  0
LINE
  8
0
 62
     0
 10
73.769
 20
41.705
 30
0.0
 11
74.5698
 21
41.705
 31
0.0
  0
LINE
  8
0
 62
     0
 10
74.5698
 20
41.705
 30
0.0
 11
74.5698
 21
44.8056
 31
0.0
  0
LINE
  8
0
 62
     0
 10
74.5698
 20
44.8056
 30
0.0
 11
73.769
 21
44.8056
 31
0.0
  0
LINE
  8
0
 62
     0
 10
73.769
 20
44.8056
 30
0.0
 11
73.769
 21
50.6056
 31
0.0
  0
LINE
  8
0
 62
     0
 10
73.769
 20
50.6056
 30
0.0
 11
74.5698
 21
50.6056
 31
0.0
  0
LINE
  8
0
 62
     0
 10
74.5698
 20
50.6056
 30
0.0
 11
74.5698
 21
53.7048
 31
0.0
  0
LINE
  8
0
 62
     0
 10
74.5698
 20
53.7048
 30
0.0
 11
73.769
 21
53.7048
 31
0.0
  0
LINE
  8
0
 62
     0
 10
73.769
 20
53.7048
 30
0.0
 11
73.769
 21
54.7053
 31
0.0
  0
LINE
  8
0
 62
     0
 10
73.769
 20
54.7053
 30
0.0
 11
59.7697
 21
54.7053
 31
0.0
  0
LINE
  8
0
 62
     0
 10
78.8197
 20
54.7053
 30
0.0
 11
78.8197
 21
53.7048
 31
0.0
  0
LINE
  8
0
 62
     0
 10
78.8197
 20
53.7048
 30
0.0
 11
78.0203
 21
53.7048
 31
0.0
  0
LINE
  8
0
 62
     0
 10
78.0203
 20
53.7048
 30
0.0
 11
78.0203
 21
50.6056
 31
0.0
  0
LINE
  8
0
 62
     0
 10
78.0203
 20
50.6056
 30
0.0
 11
78.8197
 21
50.6056
 31
0.0
  0
LINE
  8
0
 62
     0
 10
78.8197
 20
50.6056
 30
0.0
 11
78.8197
 21
44.8056
 31
0.0
  0
LINE
  8
0
 62
     0
 10
78.8197
 20
44.8056
 30
0.0
 11
78.0203
 21
44.8056
 31
0.0
  0
LINE
  8
0
 62
     0
 10
78.0203
 20
44.8056
 30
0.0
 11
78.0203
 21
41.705
 31
0.0
  0
LINE
  8
0
 62
     0
 10
78.0203
 20
41.705
 30
0.0
 11
78.8197
 21
41.705
 31
0.0
  0
LINE
  8
0
 62
     0
 10
78.8197
 20
41.705
 30
0.0
 11
78.8197
 21
40.706
 31
0.0
  0
LINE
  8
0
 62
     0
 10
78.8197
 20
40.706
 30
0.0
 11
92.819
 21
40.706
 31
0.0
  0
LINE
  8
0
 62
     0
 10
92.819
 20
40.706
 30
0.0
 11
92.819
 21
41.705
 31
0.0
  0
LINE
  8
0
 62
     0
 10
92.819
 20
41.705
 30
0.0
 11
93.6184
 21
41.705
 31
0.0
  0
LINE
  8
0
 62
     0
 10
93.6184
 20
41.705
 30
0.0
 11
93.6184
 21
44.8056
 31
0.0
  0
LINE
  8
0
 62
     0
 10
93.6184
 20
44.8056
 30
0.0
 11
92.819
 21
44.8056
 31
0.0
  0
LINE
  8
0
 62
     0
 10
92.819
 20
44.8056
 30
0.0
 11
92.819
 21
50.6056
 31
0.0
  0
LINE
  8
0
 62
     0
 10
92.819
 20
50.6056
 30
0.0
 11
93.6184
 21
50.6056
 31
0.0
  0
LINE
  8
0
 62
     0
 10
93.6184
 20
50.6056
 30
0.0
 11
93.6184
 21
53.7048
 31
0.0
  0
LINE
  8
0
 62
     0
 10
93.6184
 20
53.7048
 30
0.0
 11
92.819
 21
53.7048
 31
0.0
  0
LINE
  8
0
 62
     0
 10
92.819
 20
53.7048
 30
0.0
 11
92.819
 21
54.7053
 31
0.0
  0
LINE
  8
0
 62
     0
 10
92.819
 20
54.7053
 30
0.0
 11
78.8197
 21
54.7053
 31
0.0
  0
LINE
  8
0
 62
     0
 10
97.8683
 20
54.7053
 30
0.0
 11
97.8683
 21
53.7048
 31
0.0
  0
LINE
  8
0
 62
     0
 10
97.8683
 20
53.7048
 30
0.0
 11
97.0703
 21
53.7048
 31
0.0
  0
LINE
  8
0
 62
     0
 10
97.0703
 20
53.7048
 30
0.0
 11
97.0703
 21
50.6056
 31
0.0
  0
LINE
  8
0
 62
     0
 10
97.0703
 20
50.6056
 30
0.0
 11
97.8683
 21
50.6056
 31
0.0
  0
LINE
  8
0
 62
     0
 10
97.8683
 20
50.6056
 30
0.0
 11
97.8683
 21
44.8056
 31
0.0
  0
LINE
  8
0
 62
     0
 10
97.8683
 20
44.8056
 30
0.0
 11
97.0703
 21
44.8056
 31
0.0
  0
LINE
  8
0
 62
     0
 10
97.0703
 20
44.8056
 30
0.0
 11
97.0703
 21
41.705
 31
0.0
  0
LINE
  8
0
 62
     0
 10
97.0703
 20
41.705
 30
0.0
 11
97.8683
 21
41.705
 31
0.0
  0
LINE
  8
0
 62
     0
 10
97.8683
 20
41.705
 30
0.0
 11
97.8683
 21
40.706
 31
0.0
  0
LINE
  8
0
 62
     0
 10
97.8683
 20
40.706
 30
0.0
 11
111.869
 21
40.706
 31
0.0
  0
LINE
  8
0
 62
     0
 10
111.869
 20
40.706
 30
0.0
 11
111.869
 21
41.705
 31
0.0
  0
LINE
  8
0
 62
     0
 10
111.869
 20
41.705
 30
0.0
 11
112.668
 21
41.705
 31
0.0
  0
LINE
  8
0
 62
     0
 10
112.668
 20
41.705
 30
0.0
 11
112.668
 21
44.8056
 31
0.0
  0
LINE
  8
0
 62
     0
 10
112.668
 20
44.8056
 30
0.0
 11
111.869
 21
44.8056
 31
0.0
  0
LINE
  8
0
 62
     0
 10
111.869
 20
44.8056
 30
0.0
 11
111.869
 21
50.6056
 31
0.0
  0
LINE
  8
0
 62
     0
 10
111.869
 20
50.6056
 30
0.0
 11
112.668
 21
50.6056
 31
0.0
  0
LINE
  8
0
 62
     0
 10
112.668
 20
50.6056
 30
0.0
 11
112.668
 21
53.7048
 31
0.0
  0
LINE
  8
0
 62
     0
 10
112.668
 20
53.7048
 30
0.0
 11
111.869
 21
53.7048
 31
0.0
  0
LINE
  8
0
 62
     0
 10
111.869
 20
53.7048
 30
0.0
 11
111.869
 21
54.7053
 31
0.0
  0
LINE
  8
0
 62
     0
 10
111.869
 20
54.7053
 30
0.0
 11
97.8683
 21
54.7053
 31
0.0
  0
LINE
  8
0
 62
     0
 10
116.918
 20
54.7053
 30
0.0
 11
116.918
 21
53.7048
 31
0.0
  0
LINE
  8
0
 62
     0
 10
116.918
 20
53.7048
 30
0.0
 11
116.119
 21
53.7048
 31
0.0
  0
LINE
  8
0
 62
     0
 10
116.119
 20
53.7048
 30
0.0
 11
116.119
 21
50.6056
 31
0.0
  0
LINE
  8
0
 62
     0
 10
116.119
 20
50.6056
 30
0.0
 11
116.918
 21
50.6056
 31
0.0
  0
LINE
  8
0
 62
     0
 10
116.918
 20
50.6056
 30
0.0
 11
116.918
 21
44.8056
 31
0.0
  0
LINE
  8
0
 62
     0
 10
116.918
 20
44.8056
 30
0.0
 11
116.119
 21
44.8056
 31
0.0
  0
LINE
  8
0
 62
     0
 10
116.119
 20
44.8056
 30
0.0
 11
116.119
 21
41.705
 31
0.0
  0
LINE
  8
0
 62
     0
 10
116.119
 20
41.705
 30
0.0
 11
116.918
 21
41.705
 31
0.0
  0
LINE
  8
0
 62
     0
 10
116.918
 20
41.705
 30
0.0
 11
116.918
 21
40.706
 31
0.0
  0
LINE
  8
0
 62
     0
 10
116.918
 20
40.706
 30
0.0
 11
130.919
 21
40.706
 31
0.0
  0
LINE
  8
0
 62
     0
 10
130.919
 20
40.706
 30
0.0
 11
130.919
 21
41.705
 31
0.0
  0
LINE
  8
0
 62
     0
 10
130.919
 20
41.705
 30
0.0
 11
131.72
 21
41.705
 31
0.0
  0
LINE
  8
0
 62
     0
 10
131.72
 20
41.705
 30
0.0
 11
131.72
 21
44.8056
 31
0.0
  0
LINE
  8
0
 62
     0
 10
131.72
 20
44.8056
 30
0.0
 11
130.919
 21
44.8056
 31
0.0
  0
LINE
  8
0
 62
     0
 10
130.919
 20
44.8056
 30
0.0
 11
130.919
 21
50.6056
 31
0.0
  0
LINE
  8
0
 62
     0
 10
130.919
 20
50.6056
 30
0.0
 11
131.72
 21
50.6056
 31
0.0
  0
LINE
  8
0
 62
     0
 10
131.72
 20
50.6056
 30
0.0
 11
131.72
 21
53.7048
 31
0.0
  0
LINE
  8
0
 62
     0
 10
131.72
 20
53.7048
 30
0.0
 11
130.919
 21
53.7048
 31
0.0
  0
LINE
  8
0
 62
     0
 10
130.919
 20
53.7048
 30
0.0
 11
130.919
 21
54.7053
 31
0.0
  0
LINE
  8
0
 62
     0
 10
130.919
 20
54.7053
 30
0.0
 11
116.918
 21
54.7053
 31
0.0
  0
LINE
  8
0
 62
     0
 10
135.97
 20
54.7053
 30
0.0
 11
135.97
 21
53.7048
 31
0.0
  0
LINE
  8
0
 62
     0
 10
135.97
 20
53.7048
 30
0.0
 11
135.17
 21
53.7048
 31
0.0
  0
LINE
  8
0
 62
     0
 10
135.17
 20
53.7048
 30
0.0
 11
135.17
 21
50.6056
 31
0.0
  0
LINE
  8
0
 62
     0
 10
135.17
 20
50.6056
 30
0.0
 11
135.97
 21
50.6056
 31
0.0
  0
LINE
  8
0
 62
     0
 10
135.97
 20
50.6056
 30
0.0
 11
135.97
 21
44.8056
 31
0.0
  0
LINE
  8
0
 62
     0
 10
135.97
 20
44.8056
 30
0.0
 11
135.17
 21
44.8056
 31
0.0
  0
LINE
  8
0
 62
     0
 10
135.17
 20
44.8056
 30
0.0
 11
135.17
 21
41.705
 31
0.0
  0
LINE
  8
0
 62
     0
 10
135.17
 20
41.705
 30
0.0
 11
135.97
 21
41.705
 31
0.0
  0
LINE
  8
0
 62
     0
 10
135.97
 20
41.705
 30
0.0
 11
135.97
 21
40.706
 31
0.0
  0
LINE
  8
0
 62
     0
 10
135.97
 20
40.706
 30
0.0
 11
149.969
 21
40.706
 31
0.0
  0
LINE
  8
0
 62
     0
 10
149.969
 20
40.706
 30
0.0
 11
149.969
 21
41.705
 31
0.0
  0
LINE
  8
0
 62
     0
 10
149.969
 20
41.705
 30
0.0
 11
150.77
 21
41.705
 31
0.0
  0
LINE
  8
0
 62
     0
 10
150.77
 20
41.705
 30
0.0
 11
150.77
 21
44.8056
 31
0.0
  0
LINE
  8
0
 62
     0
 10
150.77
 20
44.8056
 30
0.0
 11
149.969
 21
44.8056
 31
0.0
  0
LINE
  8
0
 62
     0
 10
149.969
 20
44.8056
 30
0.0
 11
149.969
 21
50.6056
 31
0.0
  0
LINE
  8
0
 62
     0
 10
149.969
 20
50.6056
 30
0.0
 11
150.77
 21
50.6056
 31
0.0
  0
LINE
  8
0
 62
     0
 10
150.77
 20
50.6056
 30
0.0
 11
150.77
 21
53.7048
 31
0.0
  0
LINE
  8
0
 62
     0
 10
150.77
 20
53.7048
 30
0.0
 11
149.969
 21
53.7048
 31
0.0
  0
LINE
  8
0
 62
     0
 10
149.969
 20
53.7048
 30
0.0
 11
149.969
 21
54.7053
 31
0.0
  0
LINE
  8
0
 62
     0
 10
149.969
 20
54.7053
 30
0.0
 11
135.97
 21
54.7053
 31
0.0
  0
LINE
  8
0
 62
     0
 10
155.02
 20
54.7053
 30
0.0
 11
155.02
 21
53.7048
 31
0.0
  0
LINE
  8
0
 62
     0
 10
155.02
 20
53.7048
 30
0.0
 11
154.22
 21
53.7048
 31
0.0
  0
LINE
  8
0
 62
     0
 10
154.22
 20
53.7048
 30
0.0
 11
154.22
 21
50.6056
 31
0.0
  0
LINE
  8
0
 62
     0
 10
154.22
 20
50.6056
 30
0.0
 11
155.02
 21
50.6056
 31
0.0
  0
LINE
  8
0
 62
     0
 10
155.02
 20
50.6056
 30
0.0
 11
155.02
 21
44.8056
 31
0.0
  0
LINE
  8
0
 62
     0
 10
155.02
 20
44.8056
 30
0.0
 11
154.22
 21
44.8056
 31
0.0
  0
LINE
  8
0
 62
     0
 10
154.22
 20
44.8056
 30
0.0
 11
154.22
 21
41.705
 31
0.0
  0
LINE
  8
0
 62
     0
 10
154.22
 20
41.705
 30
0.0
 11
155.02
 21
41.705
 31
0.0
  0
LINE
  8
0
 62
     0
 10
155.02
 20
41.705
 30
0.0
 11
155.02
 21
40.706
 31
0.0
  0
LINE
  8
0
 62
     0
 10
155.02
 20
40.706
 30
0.0
 11
169.019
 21
40.706
 31
0.0
  0
LINE
  8
0
 62
     0
 10
169.019
 20
40.706
 30
0.0
 11
169.019
 21
41.705
 31
0.0
  0
LINE
  8
0
 62
     0
 10
169.019
 20
41.705
 30
0.0
 11
169.82
 21
41.705
 31
0.0
  0
LINE
  8
0
 62
     0
 10
169.82
 20
41.705
 30
0.0
 11
169.82
 21
44.8056
 31
0.0
  0
LINE
  8
0
 62
     0
 10
169.82
 20
44.8056
 30
0.0
 11
169.019
 21
44.8056
 31
0.0
  0
LINE
  8
0
 62
     0
 10
169.019
 20
44.8056
 30
0.0
 11
169.019
 21
50.6056
 31
0.0
  0
LINE
  8
0
 62
     0
 10
169.019
 20
50.6056
 30
0.0
 11
169.82
 21
50.6056
 31
0.0
  0
LINE
  8
0
 62
     0
 10
169.82
 20
50.6056
 30
0.0
 11
169.82
 21
53.7048
 31
0.0
  0
LINE
  8
0
 62
     0
 10
169.82
 20
53.7048
 30
0.0
 11
169.019
 21
53.7048
 31
0.0
  0
LINE
  8
0
 62
     0
 10
169.019
 20
53.7048
 30
0.0
 11
169.019
 21
54.7053
 31
0.0
  0
LINE
  8
0
 62
     0
 10
169.019
 20
54.7053
 30
0.0
 11
155.02
 21
54.7053
 31
0.0
  0
LINE
  8
0
 62
     0
 10
174.07
 20
54.7053
 30
0.0
 11
174.07
 21
53.7048
 31
0.0
  0
LINE
  8
0
 62
     0
 10
174.07
 20
53.7048
 30
0.0
 11
173.27
 21
53.7048
 31
0.0
  0
LINE
  8
0
 62
     0
 10
173.27
 20
53.7048
 30
0.0
 11
173.27
 21
50.6056
 31
0.0
  0
LINE
  8
0
 62
     0
 10
173.27
 20
50.6056
 30
0.0
 11
174.07
 21
50.6056
 31
0.0
  0
LINE
  8
0
 62
     0
 10
174.07
 20
50.6056
 30
0.0
 11
174.07
 21
44.8056
 31
0.0
  0
LINE
  8
0
 62
     0
 10
174.07
 20
44.8056
 30
0.0
 11
173.27
 21
44.8056
 31
0.0
  0
LINE
  8
0
 62
     0
 10
173.27
 20
44.8056
 30
0.0
 11
173.27
 21
41.705
 31
0.0
  0
LINE
  8
0
 62
     0
 10
173.27
 20
41.705
 30
0.0
 11
174.07
 21
41.705
 31
0.0
  0
LINE
  8
0
 62
     0
 10
174.07
 20
41.705
 30
0.0
 11
174.07
 21
40.706
 31
0.0
  0
LINE
  8
0
 62
     0
 10
174.07
 20
40.706
 30
0.0
 11
188.069
 21
40.706
 31
0.0
  0
LINE
  8
0
 62
     0
 10
188.069
 20
40.706
 30
0.0
 11
188.069
 21
41.705
 31
0.0
  0
LINE
  8
0
 62
     0
 10
188.069
 20
41.705
 30
0.0
 11
188.87
 21
41.705
 31
0.0
  0
LINE
  8
0
 62
     0
 10
188.87
 20
41.705
 30
0.0
 11
188.87
 21
44.8056
 31
0.0
  0
LINE
  8
0
 62
     0
 10
188.87
 20
44.8056
 30
0.0
 11
188.069
 21
44.8056
 31
0.0
  0
LINE
  8
0
 62
     0
 10
188.069
 20
44.8056
 30
0.0
 11
188.069
 21
50.6056
 31
0.0
  0
LINE
  8
0
 62
     0
 10
188.069
 20
50.6056
 30
0.0
 11
188.87
 21
50.6056
 31
0.0
  0
LINE
  8
0
 62
     0
 10
188.87
 20
50.6056
 30
0.0
 11
188.87
 21
53.7048
 31
0.0
  0
LINE
  8
0
 62
     0
 10
188.87
 20
53.7048
 30
0.0
 11
188.069
 21
53.7048
 31
0.0
  0
LINE
  8
0
 62
     0
 10
188.069
 20
53.7048
 30
0.0
 11
188.069
 21
54.7053
 31
0.0
  0
LINE
  8
0
 62
     0
 10
188.069
 20
54.7053
 30
0.0
 11
174.07
 21
54.7053
 31
0.0
  0
LINE
  8
0
 62
     0
 10
193.12
 20
54.7053
 30
0.0
 11
193.12
 21
53.7048
 31
0.0
  0
LINE
  8
0
 62
     0
 10
193.12
 20
53.7048
 30
0.0
 11
192.32
 21
53.7048
 31
0.0
  0
LINE
  8
0
 62
     0
 10
192.32
 20
53.7048
 30
0.0
 11
192.32
 21
50.6056
 31
0.0
  0
LINE
  8
0
 62
     0
 10
192.32
 20
50.6056
 30
0.0
 11
193.12
 21
50.6056
 31
0.0
  0
LINE
  8
0
 62
     0
 10
193.12
 20
50.6056
 30
0.0
 11
193.12
 21
44.8056
 31
0.0
  0
LINE
  8
0
 62
     0
 10
193.12
 20
44.8056
 30
0.0
 11
192.32
 21
44.8056
 31
0.0
  0
LINE
  8
0
 62
     0
 10
192.32
 20
44.8056
 30
0.0
 11
192.32
 21
41.705
 31
0.0
  0
LINE
  8
0
 62
     0
 10
192.32
 20
41.705
 30
0.0
 11
193.12
 21
41.705
 31
0.0
  0
LINE
  8
0
 62
     0
 10
193.12
 20
41.705
 30
0.0
 11
193.12
 21
40.706
 31
0.0
  0
LINE
  8
0
 62
     0
 10
193.12
 20
40.706
 30
0.0
 11
207.119
 21
40.706
 31
0.0
  0
LINE
  8
0
 62
     0
 10
207.119
 20
40.706
 30
0.0
 11
207.119
 21
41.705
 31
0.0
  0
LINE
  8
0
 62
     0
 10
207.119
 20
41.705
 30
0.0
 11
207.92
 21
41.705
 31
0.0
  0
LINE
  8
0
 62
     0
 10
207.92
 20
41.705
 30
0.0
 11
207.92
 21
44.8056
 31
0.0
  0
LINE
  8
0
 62
     0
 10
207.92
 20
44.8056
 30
0.0
 11
207.119
 21
44.8056
 31
0.0
  0
LINE
  8
0
 62
     0
 10
207.119
 20
44.8056
 30
0.0
 11
207.119
 21
50.6056
 31
0.0
  0
LINE
  8
0
 62
     0
 10
207.119
 20
50.6056
 30
0.0
 11
207.92
 21
50.6056
 31
0.0
  0
LINE
  8
0
 62
     0
 10
207.92
 20
50.6056
 30
0.0
 11
207.92
 21
53.7048
 31
0.0
  0
LINE
  8
0
 62
     0
 10
207.92
 20
53.7048
 30
0.0
 11
207.119
 21
53.7048
 31
0.0
  0
LINE
  8
0
 62
     0
 10
207.119
 20
53.7048
 30
0.0
 11
207.119
 21
54.7053
 31
0.0
  0
LINE
  8
0
 62
     0
 10
207.119
 20
54.7053
 30
0.0
 11
193.12
 21
54.7053
 31
0.0
  0
LINE
  8
0
 62
     0
 10
212.17
 20
54.7053
 30
0.0
 11
212.17
 21
53.7048
 31
0.0
  0
LINE
  8
0
 62
     0
 10
212.17
 20
53.7048
 30
0.0
 11
211.37
 21
53.7048
 31
0.0
  0
LINE
  8
0
 62
     0
 10
211.37
 20
53.7048
 30
0.0
 11
211.37
 21
50.6056
 31
0.0
  0
LINE
  8
0
 62
     0
 10
211.37
 20
50.6056
 30
0.0
 11
212.17
 21
50.6056
 31
0.0
  0
LINE
  8
0
 62
     0
 10
212.17
 20
50.6056
 30
0.0
 11
212.17
 21
44.8056
 31
0.0
  0
LINE
  8
0
 62
     0
 10
212.17
 20
44.8056
 30
0.0
 11
211.37
 21
44.8056
 31
0.0
  0
LINE
  8
0
 62
     0
 10
211.37
 20
44.8056
 30
0.0
 11
211.37
 21
41.705
 31
0.0
  0
LINE
  8
0
 62
     0
 10
211.37
 20
41.705
 30
0.0
 11
212.17
 21
41.705
 31
0.0
  0
LINE
  8
0
 62
     0
 10
212.17
 20
41.705
 30
0.0
 11
212.17
 21
40.706
 31
0.0
  0
LINE
  8
0
 62
     0
 10
212.17
 20
40.706
 30
0.0
 11
226.169
 21
40.706
 31
0.0
  0
LINE
  8
0
 62
     0
 10
226.169
 20
40.706
 30
0.0
 11
226.169
 21
41.705
 31
0.0
  0
LINE
  8
0
 62
     0
 10
226.169
 20
41.705
 30
0.0
 11
226.97
 21
41.705
 31
0.0
  0
LINE
  8
0
 62
     0
 10
226.97
 20
41.705
 30
0.0
 11
226.97
 21
44.8056
 31
0.0
  0
LINE
  8
0
 62
     0
 10
226.97
 20
44.8056
 30
0.0
 11
226.169
 21
44.8056
 31
0.0
  0
LINE
  8
0
 62
     0
 10
226.169
 20
44.8056
 30
0.0
 11
226.169
 21
50.6056
 31
0.0
  0
LINE
  8
0
 62
     0
 10
226.169
 20
50.6056
 30
0.0
 11
226.97
 21
50.6056
 31
0.0
  0
LINE
  8
0
 62
     0
 10
226.97
 20
50.6056
 30
0.0
 11
226.97
 21
53.7048
 31
0.0
  0
LINE
  8
0
 62
     0
 10
226.97
 20
53.7048
 30
0.0
 11
226.169
 21
53.7048
 31
0.0
  0
LINE
  8
0
 62
     0
 10
226.169
 20
53.7048
 30
0.0
 11
226.169
 21
54.7053
 31
0.0
  0
LINE
  8
0
 62
     0
 10
226.169
 20
54.7053
 30
0.0
 11
212.17
 21
54.7053
 31
0.0
  0
LINE
  8
0
 62
     0
 10
2.61965
 20
73.7553
 30
0.0
 11
2.61965
 21
72.7548
 31
0.0
  0
LINE
  8
0
 62
     0
 10
2.61965
 20
72.7548
 30
0.0
 11
1.82039
 21
72.7548
 31
0.0
  0
LINE
  8
0
 62
     0
 10
1.82039
 20
72.7548
 30
0.0
 11
1.82039
 21
69.6556
 31
0.0
  0
LINE
  8
0
 62
     0
 10
1.82039
 20
69.6556
 30
0.0
 11
2.61965
 21
69.6556
 31
0.0
  0
LINE
  8
0
 62
     0
 10
2.61965
 20
69.6556
 30
0.0
 11
2.61965
 21
63.8556
 31
0.0
  0
LINE
  8
0
 62
     0
 10
2.61965
 20
63.8556
 30
0.0
 11
1.82039
 21
63.8556
 31
0.0
  0
LINE
  8
0
 62
     0
 10
1.82039
 20
63.8556
 30
0.0
 11
1.82039
 21
60.755
 31
0.0
  0
LINE
  8
0
 62
     0
 10
1.82039
 20
60.755
 30
0.0
 11
2.61965
 21
60.755
 31
0.0
  0
LINE
  8
0
 62
     0
 10
2.61965
 20
60.755
 30
0.0
 11
2.61965
 21
59.756
 31
0.0
  0
LINE
  8
0
 62
     0
 10
2.61965
 20
59.756
 30
0.0
 11
16.6192
 21
59.756
 31
0.0
  0
LINE
  8
0
 62
     0
 10
16.6192
 20
59.756
 30
0.0
 11
16.6192
 21
60.755
 31
0.0
  0
LINE
  8
0
 62
     0
 10
16.6192
 20
60.755
 30
0.0
 11
17.4198
 21
60.755
 31
0.0
  0
LINE
  8
0
 62
     0
 10
17.4198
 20
60.755
 30
0.0
 11
17.4198
 21
63.8556
 31
0.0
  0
LINE
  8
0
 62
     0
 10
17.4198
 20
63.8556
 30
0.0
 11
16.6192
 21
63.8556
 31
0.0
  0
LINE
  8
0
 62
     0
 10
16.6192
 20
63.8556
 30
0.0
 11
16.6192
 21
69.6556
 31
0.0
  0
LINE
  8
0
 62
     0
 10
16.6192
 20
69.6556
 30
0.0
 11
17.4198
 21
69.6556
 31
0.0
  0
LINE
  8
0
 62
     0
 10
17.4198
 20
69.6556
 30
0.0
 11
17.4198
 21
72.7548
 31
0.0
  0
LINE
  8
0
 62
     0
 10
17.4198
 20
72.7548
 30
0.0
 11
16.6192
 21
72.7548
 31
0.0
  0
LINE
  8
0
 62
     0
 10
16.6192
 20
72.7548
 30
0.0
 11
16.6192
 21
73.7553
 31
0.0
  0
LINE
  8
0
 62
     0
 10
16.6192
 20
73.7553
 30
0.0
 11
2.61965
 21
73.7553
 31
0.0
  0
LINE
  8
0
 62
     0
 10
21.6697
 20
73.7553
 30
0.0
 11
21.6697
 21
72.7548
 31
0.0
  0
LINE
  8
0
 62
     0
 10
21.6697
 20
72.7548
 30
0.0
 11
20.8704
 21
72.7548
 31
0.0
  0
LINE
  8
0
 62
     0
 10
20.8704
 20
72.7548
 30
0.0
 11
20.8704
 21
69.6556
 31
0.0
  0
LINE
  8
0
 62
     0
 10
20.8704
 20
69.6556
 30
0.0
 11
21.6697
 21
69.6556
 31
0.0
  0
LINE
  8
0
 62
     0
 10
21.6697
 20
69.6556
 30
0.0
 11
21.6697
 21
63.8556
 31
0.0
  0
LINE
  8
0
 62
     0
 10
21.6697
 20
63.8556
 30
0.0
 11
20.8704
 21
63.8556
 31
0.0
  0
LINE
  8
0
 62
     0
 10
20.8704
 20
63.8556
 30
0.0
 11
20.8704
 21
60.755
 31
0.0
  0
LINE
  8
0
 62
     0
 10
20.8704
 20
60.755
 30
0.0
 11
21.6697
 21
60.755
 31
0.0
  0
LINE
  8
0
 62
     0
 10
21.6697
 20
60.755
 30
0.0
 11
21.6697
 21
59.756
 31
0.0
  0
LINE
  8
0
 62
     0
 10
21.6697
 20
59.756
 30
0.0
 11
35.669
 21
59.756
 31
0.0
  0
LINE
  8
0
 62
     0
 10
35.669
 20
59.756
 30
0.0
 11
35.669
 21
60.755
 31
0.0
  0
LINE
  8
0
 62
     0
 10
35.669
 20
60.755
 30
0.0
 11
36.4698
 21
60.755
 31
0.0
  0
LINE
  8
0
 62
     0
 10
36.4698
 20
60.755
 30
0.0
 11
36.4698
 21
63.8556
 31
0.0
  0
LINE
  8
0
 62
     0
 10
36.4698
 20
63.8556
 30
0.0
 11
35.669
 21
63.8556
 31
0.0
  0
LINE
  8
0
 62
     0
 10
35.669
 20
63.8556
 30
0.0
 11
35.669
 21
69.6556
 31
0.0
  0
LINE
  8
0
 62
     0
 10
35.669
 20
69.6556
 30
0.0
 11
36.4698
 21
69.6556
 31
0.0
  0
LINE
  8
0
 62
     0
 10
36.4698
 20
69.6556
 30
0.0
 11
36.4698
 21
72.7548
 31
0.0
  0
LINE
  8
0
 62
     0
 10
36.4698
 20
72.7548
 30
0.0
 11
35.669
 21
72.7548
 31
0.0
  0
LINE
  8
0
 62
     0
 10
35.669
 20
72.7548
 30
0.0
 11
35.669
 21
73.7553
 31
0.0
  0
LINE
  8
0
 62
     0
 10
35.669
 20
73.7553
 30
0.0
 11
21.6697
 21
73.7553
 31
0.0
  0
LINE
  8
0
 62
     0
 10
40.7197
 20
73.7553
 30
0.0
 11
40.7197
 21
72.7548
 31
0.0
  0
LINE
  8
0
 62
     0
 10
40.7197
 20
72.7548
 30
0.0
 11
39.9203
 21
72.7548
 31
0.0
  0
LINE
  8
0
 62
     0
 10
39.9203
 20
72.7548
 30
0.0
 11
39.9203
 21
69.6556
 31
0.0
  0
LINE
  8
0
 62
     0
 10
39.9203
 20
69.6556
 30
0.0
 11
40.7197
 21
69.6556
 31
0.0
  0
LINE
  8
0
 62
     0
 10
40.7197
 20
69.6556
 30
0.0
 11
40.7197
 21
63.8556
 31
0.0
  0
LINE
  8
0
 62
     0
 10
40.7197
 20
63.8556
 30
0.0
 11
39.9203
 21
63.8556
 31
0.0
  0
LINE
  8
0
 62
     0
 10
39.9203
 20
63.8556
 30
0.0
 11
39.9203
 21
60.755
 31
0.0
  0
LINE
  8
0
 62
     0
 10
39.9203
 20
60.755
 30
0.0
 11
40.7197
 21
60.755
 31
0.0
  0
LINE
  8
0
 62
     0
 10
40.7197
 20
60.755
 30
0.0
 11
40.7197
 21
59.756
 31
0.0
  0
LINE
  8
0
 62
     0
 10
40.7197
 20
59.756
 30
0.0
 11
54.719
 21
59.756
 31
0.0
  0
LINE
  8
0
 62
     0
 10
54.719
 20
59.756
 30
0.0
 11
54.719
 21
60.755
 31
0.0
  0
LINE
  8
0
 62
     0
 10
54.719
 20
60.755
 30
0.0
 11
55.5198
 21
60.755
 31
0.0
  0
LINE
  8
0
 62
     0
 10
55.5198
 20
60.755
 30
0.0
 11
55.5198
 21
63.8556
 31
0.0
  0
LINE
  8
0
 62
     0
 10
55.5198
 20
63.8556
 30
0.0
 11
54.719
 21
63.8556
 31
0.0
  0
LINE
  8
0
 62
     0
 10
54.719
 20
63.8556
 30
0.0
 11
54.719
 21
69.6556
 31
0.0
  0
LINE
  8
0
 62
     0
 10
54.719
 20
69.6556
 30
0.0
 11
55.5198
 21
69.6556
 31
0.0
  0
LINE
  8
0
 62
     0
 10
55.5198
 20
69.6556
 30
0.0
 11
55.5198
 21
72.7548
 31
0.0
  0
LINE
  8
0
 62
     0
 10
55.5198
 20
72.7548
 30
0.0
 11
54.719
 21
72.7548
 31
0.0
  0
LINE
  8
0
 62
     0
 10
54.719
 20
72.7548
 30
0.0
 11
54.719
 21
73.7553
 31
0.0
  0
LINE
  8
0
 62
     0
 10
54.719
 20
73.7553
 30
0.0
 11
40.7197
 21
73.7553
 31
0.0
  0
LINE
  8
0
 62
     0
 10
59.7697
 20
73.7553
 30
0.0
 11
59.7697
 21
72.7548
 31
0.0
  0
LINE
  8
0
 62
     0
 10
59.7697
 20
72.7548
 30
0.0
 11
58.9703
 21
72.7548
 31
0.0
  0
LINE
  8
0
 62
     0
 10
58.9703
 20
72.7548
 30
0.0
 11
58.9703
 21
69.6556
 31
0.0
  0
LINE
  8
0
 62
     0
 10
58.9703
 20
69.6556
 30
0.0
 11
59.7697
 21
69.6556
 31
0.0
  0
LINE
  8
0
 62
     0
 10
59.7697
 20
69.6556
 30
0.0
 11
59.7697
 21
63.8556
 31
0.0
  0
LINE
  8
0
 62
     0
 10
59.7697
 20
63.8556
 30
0.0
 11
58.9703
 21
63.8556
 31
0.0
  0
LINE
  8
0
 62
     0
 10
58.9703
 20
63.8556
 30
0.0
 11
58.9703
 21
60.755
 31
0.0
  0
LINE
  8
0
 62
     0
 10
58.9703
 20
60.755
 30
0.0
 11
59.7697
 21
60.755
 31
0.0
  0
LINE
  8
0
 62
     0
 10
59.7697
 20
60.755
 30
0.0
 11
59.7697
 21
59.756
 31
0.0
  0
LINE
  8
0
 62
     0
 10
59.7697
 20
59.756
 30
0.0
 11
73.769
 21
59.756
 31
0.0
  0
LINE
  8
0
 62
     0
 10
73.769
 20
59.756
 30
0.0
 11
73.769
 21
60.755
 31
0.0
  0
LINE
  8
0
 62
     0
 10
73.769
 20
60.755
 30
0.0
 11
74.5698
 21
60.755
 31
0.0
  0
LINE
  8
0
 62
     0
 10
74.5698
 20
60.755
 30
0.0
 11
74.5698
 21
63.8556
 31
0.0
  0
LINE
  8
0
 62
     0
 10
74.5698
 20
63.8556
 30
0.0
 11
73.769
 21
63.8556
 31
0.0
  0
LINE
  8
0
 62
     0
 10
73.769
 20
63.8556
 30
0.0
 11
73.769
 21
69.6556
 31
0.0
  0
LINE
  8
0
 62
     0
 10
73.769
 20
69.6556
 30
0.0
 11
74.5698
 21
69.6556
 31
0.0
  0
LINE
  8
0
 62
     0
 10
74.5698
 20
69.6556
 30
0.0
 11
74.5698
 21
72.7548
 31
0.0
  0
LINE
  8
0
 62
     0
 10
74.5698
 20
72.7548
 30
0.0
 11
73.769
 21
72.7548
 31
0.0
  0
LINE
  8
0
 62
     0
 10
73.769
 20
72.7548
 30
0.0
 11
73.769
 21
73.7553
 31
0.0
  0
LINE
  8
0
 62
     0
 10
73.769
 20
73.7553
 30
0.0
 11
59.7697
 21
73.7553
 31
0.0
  0
LINE
  8
0
 62
     0
 10
78.8197
 20
73.7553
 30
0.0
 11
78.8197
 21
72.7548
 31
0.0
  0
LINE
  8
0
 62
     0
 10
78.8197
 20
72.7548
 30
0.0
 11
78.0203
 21
72.7548
 31
0.0
  0
LINE
  8
0
 62
     0
 10
78.0203
 20
72.7548
 30
0.0
 11
78.0203
 21
69.6556
 31
0.0
  0
LINE
  8
0
 62
     0
 10
78.0203
 20
69.6556
 30
0.0
 11
78.8197
 21
69.6556
 31
0.0
  0
LINE
  8
0
 62
     0
 10
78.8197
 20
69.6556
 30
0.0
 11
78.8197
 21
63.8556
 31
0.0
  0
LINE
  8
0
 62
     0
 10
78.8197
 20
63.8556
 30
0.0
 11
78.0203
 21
63.8556
 31
0.0
  0
LINE
  8
0
 62
     0
 10
78.0203
 20
63.8556
 30
0.0
 11
78.0203
 21
60.755
 31
0.0
  0
LINE
  8
0
 62
     0
 10
78.0203
 20
60.755
 30
0.0
 11
78.8197
 21
60.755
 31
0.0
  0
LINE
  8
0
 62
     0
 10
78.8197
 20
60.755
 30
0.0
 11
78.8197
 21
59.756
 31
0.0
  0
LINE
  8
0
 62
     0
 10
78.8197
 20
59.756
 30
0.0
 11
92.819
 21
59.756
 31
0.0
  0
LINE
  8
0
 62
     0
 10
92.819
 20
59.756
 30
0.0
 11
92.819
 21
60.755
 31
0.0
  0
LINE
  8
0
 62
     0
 10
92.819
 20
60.755
 30
0.0
 11
93.6184
 21
60.755
 31
0.0
  0
LINE
  8
0
 62
     0
 10
93.6184
 20
60.755
 30
0.0
 11
93.6184
 21
63.8556
 31
0.0
  0
LINE
  8
0
 62
     0
 10
93.6184
 20
63.8556
 30
0.0
 11
92.819
 21
63.8556
 31
0.0
  0
LINE
  8
0
 62
     0
 10
92.819
 20
63.8556
 30
0.0
 11
92.819
 21
69.6556
 31
0.0
  0
LINE
  8
0
 62
     0
 10
92.819
 20
69.6556
 30
0.0
 11
93.6184
 21
69.6556
 31
0.0
  0
LINE
  8
0
 62
     0
 10
93.6184
 20
69.6556
 30
0.0
 11
93.6184
 21
72.7548
 31
0.0
  0
LINE
  8
0
 62
     0
 10
93.6184
 20
72.7548
 30
0.0
 11
92.819
 21
72.7548
 31
0.0
  0
LINE
  8
0
 62
     0
 10
92.819
 20
72.7548
 30
0.0
 11
92.819
 21
73.7553
 31
0.0
  0
LINE
  8
0
 62
     0
 10
92.819
 20
73.7553
 30
0.0
 11
78.8197
 21
73.7553
 31
0.0
  0
LINE
  8
0
 62
     0
 10
97.8683
 20
73.7553
 30
0.0
 11
97.8683
 21
72.7548
 31
0.0
  0
LINE
  8
0
 62
     0
 10
97.8683
 20
72.7548
 30
0.0
 11
97.0703
 21
72.7548
 31
0.0
  0
LINE
  8
0
 62
     0
 10
97.0703
 20
72.7548
 30
0.0
 11
97.0703
 21
69.6556
 31
0.0
  0
LINE
  8
0
 62
     0
 10
97.0703
 20
69.6556
 30
0.0
 11
97.8683
 21
69.6556
 31
0.0
  0
LINE
  8
0
 62
     0
 10
97.8683
 20
69.6556
 30
0.0
 11
97.8683
 21
63.8556
 31
0.0
  0
LINE
  8
0
 62
     0
 10
97.8683
 20
63.8556
 30
0.0
 11
97.0703
 21
63.8556
 31
0.0
  0
LINE
  8
0
 62
     0
 10
97.0703
 20
63.8556
 30
0.0
 11
97.0703
 21
60.755
 31
0.0
  0
LINE
  8
0
 62
     0
 10
97.0703
 20
60.755
 30
0.0
 11
97.8683
 21
60.755
 31
0.0
  0
LINE
  8
0
 62
     0
 10
97.8683
 20
60.755
 30
0.0
 11
97.8683
 21
59.756
 31
0.0
  0
LINE
  8
0
 62
     0
 10
97.8683
 20
59.756
 30
0.0
 11
111.869
 21
59.756
 31
0.0
  0
LINE
  8
0
 62
     0
 10
111.869
 20
59.756
 30
0.0
 11
111.869
 21
60.755
 31
0.0
  0
LINE
  8
0
 62
     0
 10
111.869
 20
60.755
 30
0.0
 11
112.668
 21
60.755
 31
0.0
  0
LINE
  8
0
 62
     0
 10
112.668
 20
60.755
 30
0.0
 11
112.668
 21
63.8556
 31
0.0
  0
LINE
  8
0
 62
     0
 10
112.668
 20
63.8556
 30
0.0
 11
111.869
 21
63.8556
 31
0.0
  0
LINE
  8
0
 62
     0
 10
111.869
 20
63.8556
 30
0.0
 11
111.869
 21
69.6556
 31
0.0
  0
LINE
  8
0
 62
     0
 10
111.869
 20
69.6556
 30
0.0
 11
112.668
 21
69.6556
 31
0.0
  0
LINE
  8
0
 62
     0
 10
112.668
 20
69.6556
 30
0.0
 11
112.668
 21
72.7548
 31
0.0
  0
LINE
  8
0
 62
     0
 10
112.668
 20
72.7548
 30
0.0
 11
111.869
 21
72.7548
 31
0.0
  0
LINE
  8
0
 62
     0
 10
111.869
 20
72.7548
 30
0.0
 11
111.869
 21
73.7553
 31
0.0
  0
LINE
  8
0
 62
     0
 10
111.869
 20
73.7553
 30
0.0
 11
97.8683
 21
73.7553
 31
0.0
  0
LINE
  8
0
 62
     0
 10
116.918
 20
73.7553
 30
0.0
 11
116.918
 21
72.7548
 31
0.0
  0
LINE
  8
0
 62
     0
 10
116.918
 20
72.7548
 30
0.0
 11
116.119
 21
72.7548
 31
0.0
  0
LINE
  8
0
 62
     0
 10
116.119
 20
72.7548
 30
0.0
 11
116.119
 21
69.6556
 31
0.0
  0
LINE
  8
0
 62
     0
 10
116.119
 20
69.6556
 30
0.0
 11
116.918
 21
69.6556
 31
0.0
  0
LINE
  8
0
 62
     0
 10
116.918
 20
69.6556
 30
0.0
 11
116.918
 21
63.8556
 31
0.0
  0
LINE
  8
0
 62
     0
 10
116.918
 20
63.8556
 30
0.0
 11
116.119
 21
63.8556
 31
0.0
  0
LINE
  8
0
 62
     0
 10
116.119
 20
63.8556
 30
0.0
 11
116.119
 21
60.755
 31
0.0
  0
LINE
  8
0
 62
     0
 10
116.119
 20
60.755
 30
0.0
 11
116.918
 21
60.755
 31
0.0
  0
LINE
  8
0
 62
     0
 10
116.918
 20
60.755
 30
0.0
 11
116.918
 21
59.756
 31
0.0
  0
LINE
  8
0
 62
     0
 10
116.918
 20
59.756
 30
0.0
 11
130.919
 21
59.756
 31
0.0
  0
LINE
  8
0
 62
     0
 10
130.919
 20
59.756
 30
0.0
 11
130.919
 21
60.755
 31
0.0
  0
LINE
  8
0
 62
     0
 10
130.919
 20
60.755
 30
0.0
 11
131.72
 21
60.755
 31
0.0
  0
LINE
  8
0
 62
     0
 10
131.72
 20
60.755
 30
0.0
 11
131.72
 21
63.8556
 31
0.0
  0
LINE
  8
0
 62
     0
 10
131.72
 20
63.8556
 30
0.0
 11
130.919
 21
63.8556
 31
0.0
  0
LINE
  8
0
 62
     0
 10
130.919
 20
63.8556
 30
0.0
 11
130.919
 21
69.6556
 31
0.0
  0
LINE
  8
0
 62
     0
 10
130.919
 20
69.6556
 30
0.0
 11
131.72
 21
69.6556
 31
0.0
  0
LINE
  8
0
 62
     0
 10
131.72
 20
69.6556
 30
0.0
 11
131.72
 21
72.7548
 31
0.0
  0
LINE
  8
0
 62
     0
 10
131.72
 20
72.7548
 30
0.0
 11
130.919
 21
72.7548
 31
0.0
  0
LINE
  8
0
 62
     0
 10
130.919
 20
72.7548
 30
0.0
 11
130.919
 21
73.7553
 31
0.0
  0
LINE
  8
0
 62
     0
 10
130.919
 20
73.7553
 30
0.0
 11
116.918
 21
73.7553
 31
0.0
  0
LINE
  8
0
 62
     0
 10
135.97
 20
73.7553
 30
0.0
 11
135.97
 21
72.7548
 31
0.0
  0
LINE
  8
0
 62
     0
 10
135.97
 20
72.7548
 30
0.0
 11
135.17
 21
72.7548
 31
0.0
  0
LINE
  8
0
 62
     0
 10
135.17
 20
72.7548
 30
0.0
 11
135.17
 21
69.6556
 31
0.0
  0
LINE
  8
0
 62
     0
 10
135.17
 20
69.6556
 30
0.0
 11
135.97
 21
69.6556
 31
0.0
  0
LINE
  8
0
 62
     0
 10
135.97
 20
69.6556
 30
0.0
 11
135.97
 21
63.8556
 31
0.0
  0
LINE
  8
0
 62
     0
 10
135.97
 20
63.8556
 30
0.0
 11
135.17
 21
63.8556
 31
0.0
  0
LINE
  8
0
 62
     0
 10
135.17
 20
63.8556
 30
0.0
 11
135.17
 21
60.755
 31
0.0
  0
LINE
  8
0
 62
     0
 10
135.17
 20
60.755
 30
0.0
 11
135.97
 21
60.755
 31
0.0
  0
LINE
  8
0
 62
     0
 10
135.97
 20
60.755
 30
0.0
 11
135.97
 21
59.756
 31
0.0
  0
LINE
  8
0
 62
     0
 10
135.97
 20
59.756
 30
0.0
 11
149.969
 21
59.756
 31
0.0
  0
LINE
  8
0
 62
     0
 10
149.969
 20
59.756
 30
0.0
 11
149.969
 21
60.755
 31
0.0
  0
LINE
  8
0
 62
     0
 10
149.969
 20
60.755
 30
0.0
 11
150.77
 21
60.755
 31
0.0
  0
LINE
  8
0
 62
     0
 10
150.77
 20
60.755
 30
0.0
 11
150.77
 21
63.8556
 31
0.0
  0
LINE
  8
0
 62
     0
 10
150.77
 20
63.8556
 30
0.0
 11
149.969
 21
63.8556
 31
0.0
  0
LINE
  8
0
 62
     0
 10
149.969
 20
63.8556
 30
0.0
 11
149.969
 21
69.6556
 31
0.0
  0
LINE
  8
0
 62
     0
 10
149.969
 20
69.6556
 30
0.0
 11
150.77
 21
69.6556
 31
0.0
  0
LINE
  8
0
 62
     0
 10
150.77
 20
69.6556
 30
0.0
 11
150.77
 21
72.7548
 31
0.0
  0
LINE
  8
0
 62
     0
 10
150.77
 20
72.7548
 30
0.0
 11
149.969
 21
72.7548
 31
0.0
  0
LINE
  8
0
 62
     0
 10
149.969
 20
72.7548
 30
0.0
 11
149.969
 21
73.7553
 31
0.0
  0
LINE
  8
0
 62
     0
 10
149.969
 20
73.7553
 30
0.0
 11
135.97
 21
73.7553
 31
0.0
  0
LINE
  8
0
 62
     0
 10
155.02
 20
73.7553
 30
0.0
 11
155.02
 21
72.7548
 31
0.0
  0
LINE
  8
0
 62
     0
 10
155.02
 20
72.7548
 30
0.0
 11
154.22
 21
72.7548
 31
0.0
  0
LINE
  8
0
 62
     0
 10
154.22
 20
72.7548
 30
0.0
 11
154.22
 21
69.6556
 31
0.0
  0
LINE
  8
0
 62
     0
 10
154.22
 20
69.6556
 30
0.0
 11
155.02
 21
69.6556
 31
0.0
  0
LINE
  8
0
 62
     0
 10
155.02
 20
69.6556
 30
0.0
 11
155.02
 21
63.8556
 31
0.0
  0
LINE
  8
0
 62
     0
 10
155.02
 20
63.8556
 30
0.0
 11
154.22
 21
63.8556
 31
0.0
  0
LINE
  8
0
 62
     0
 10
154.22
 20
63.8556
 30
0.0
 11
154.22
 21
60.755
 31
0.0
  0
LINE
  8
0
 62
     0
 10
154.22
 20
60.755
 30
0.0
 11
155.02
 21
60.755
 31
0.0
  0
LINE
  8
0
 62
     0
 10
155.02
 20
60.755
 30
0.0
 11
155.02
 21
59.756
 31
0.0
  0
LINE
  8
0
 62
     0
 10
155.02
 20
59.756
 30
0.0
 11
169.019
 21
59.756
 31
0.0
  0
LINE
  8
0
 62
     0
 10
169.019
 20
59.756
 30
0.0
 11
169.019
 21
60.755
 31
0.0
  0
LINE
  8
0
 62
     0
 10
169.019
 20
60.755
 30
0.0
 11
169.82
 21
60.755
 31
0.0
  0
LINE
  8
0
 62
     0
 10
169.82
 20
60.755
 30
0.0
 11
169.82
 21
63.8556
 31
0.0
  0
LINE
  8
0
 62
     0
 10
169.82
 20
63.8556
 30
0.0
 11
169.019
 21
63.8556
 31
0.0
  0
LINE
  8
0
 62
     0
 10
169.019
 20
63.8556
 30
0.0
 11
169.019
 21
69.6556
 31
0.0
  0
LINE
  8
0
 62
     0
 10
169.019
 20
69.6556
 30
0.0
 11
169.82
 21
69.6556
 31
0.0
  0
LINE
  8
0
 62
     0
 10
169.82
 20
69.6556
 30
0.0
 11
169.82
 21
72.7548
 31
0.0
  0
LINE
  8
0
 62
     0
 10
169.82
 20
72.7548
 30
0.0
 11
169.019
 21
72.7548
 31
0.0
  0
LINE
  8
0
 62
     0
 10
169.019
 20
72.7548
 30
0.0
 11
169.019
 21
73.7553
 31
0.0
  0
LINE
  8
0
 62
     0
 10
169.019
 20
73.7553
 30
0.0
 11
155.02
 21
73.7553
 31
0.0
  0
LINE
  8
0
 62
     0
 10
174.07
 20
73.7553
 30
0.0
 11
174.07
 21
72.7548
 31
0.0
  0
LINE
  8
0
 62
     0
 10
174.07
 20
72.7548
 30
0.0
 11
173.27
 21
72.7548
 31
0.0
  0
LINE
  8
0
 62
     0
 10
173.27
 20
72.7548
 30
0.0
 11
173.27
 21
69.6556
 31
0.0
  0
LINE
  8
0
 62
     0
 10
173.27
 20
69.6556
 30
0.0
 11
174.07
 21
69.6556
 31
0.0
  0
LINE
  8
0
 62
     0
 10
174.07
 20
69.6556
 30
0.0
 11
174.07
 21
63.8556
 31
0.0
  0
LINE
  8
0
 62
     0
 10
174.07
 20
63.8556
 30
0.0
 11
173.27
 21
63.8556
 31
0.0
  0
LINE
  8
0
 62
     0
 10
173.27
 20
63.8556
 30
0.0
 11
173.27
 21
60.755
 31
0.0
  0
LINE
  8
0
 62
     0
 10
173.27
 20
60.755
 30
0.0
 11
174.07
 21
60.755
 31
0.0
  0
LINE
  8
0
 62
     0
 10
174.07
 20
60.755
 30
0.0
 11
174.07
 21
59.756
 31
0.0
  0
LINE
  8
0
 62
     0
 10
174.07
 20
59.756
 30
0.0
 11
188.069
 21
59.756
 31
0.0
  0
LINE
  8
0
 62
     0
 10
188.069
 20
59.756
 30
0.0
 11
188.069
 21
60.755
 31
0.0
  0
LINE
  8
0
 62
     0
 10
188.069
 20
60.755
 30
0.0
 11
188.87
 21
60.755
 31
0.0
  0
LINE
  8
0
 62
     0
 10
188.87
 20
60.755
 30
0.0
 11
188.87
 21
63.8556
 31
0.0
  0
LINE
  8
0
 62
     0
 10
188.87
 20
63.8556
 30
0.0
 11
188.069
 21
63.8556
 31
0.0
  0
LINE
  8
0
 62
     0
 10
188.069
 20
63.8556
 30
0.0
 11
188.069
 21
69.6556
 31
0.0
  0
LINE
  8
0
 62
     0
 10
188.069
 20
69.6556
 30
0.0
 11
188.87
 21
69.6556
 31
0.0
  0
LINE
  8
0
 62
     0
 10
188.87
 20
69.6556
 30
0.0
 11
188.87
 21
72.7548
 31
0.0
  0
LINE
  8
0
 62
     0
 10
188.87
 20
72.7548
 30
0.0
 11
188.069
 21
72.7548
 31
0.0
  0
LINE
  8
0
 62
     0
 10
188.069
 20
72.7548
 30
0.0
 11
188.069
 21
73.7553
 31
0.0
  0
LINE
  8
0
 62
     0
 10
188.069
 20
73.7553
 30
0.0
 11
174.07
 21
73.7553
 31
0.0
  0
LINE
  8
0
 62
     0
 10
193.12
 20
73.7553
 30
0.0
 11
193.12
 21
72.7548
 31
0.0
  0
LINE
  8
0
 62
     0
 10
193.12
 20
72.7548
 30
0.0
 11
192.32
 21
72.7548
 31
0.0
  0
LINE
  8
0
 62
     0
 10
192.32
 20
72.7548
 30
0.0
 11
192.32
 21
69.6556
 31
0.0
  0
LINE
  8
0
 62
     0
 10
192.32
 20
69.6556
 30
0.0
 11
193.12
 21
69.6556
 31
0.0
  0
LINE
  8
0
 62
     0
 10
193.12
 20
69.6556
 30
0.0
 11
193.12
 21
63.8556
 31
0.0
  0
LINE
  8
0
 62
     0
 10
193.12
 20
63.8556
 30
0.0
 11
192.32
 21
63.8556
 31
0.0
  0
LINE
  8
0
 62
     0
 10
192.32
 20
63.8556
 30
0.0
 11
192.32
 21
60.755
 31
0.0
  0
LINE
  8
0
 62
     0
 10
192.32
 20
60.755
 30
0.0
 11
193.12
 21
60.755
 31
0.0
  0
LINE
  8
0
 62
     0
 10
193.12
 20
60.755
 30
0.0
 11
193.12
 21
59.756
 31
0.0
  0
LINE
  8
0
 62
     0
 10
193.12
 20
59.756
 30
0.0
 11
207.119
 21
59.756
 31
0.0
  0
LINE
  8
0
 62
     0
 10
207.119
 20
59.756
 30
0.0
 11
207.119
 21
60.755
 31
0.0
  0
LINE
  8
0
 62
     0
 10
207.119
 20
60.755
 30
0.0
 11
207.92
 21
60.755
 31
0.0
  0
LINE
  8
0
 62
     0
 10
207.92
 20
60.755
 30
0.0
 11
207.92
 21
63.8556
 31
0.0
  0
LINE
  8
0
 62
     0
 10
207.92
 20
63.8556
 30
0.0
 11
207.119
 21
63.8556
 31
0.0
  0
LINE
  8
0
 62
     0
 10
207.119
 20
63.8556
 30
0.0
 11
207.119
 21
69.6556
 31
0.0
  0
LINE
  8
0
 62
     0
 10
207.119
 20
69.6556
 30
0.0
 11
207.92
 21
69.6556
 31
0.0
  0
LINE
  8
0
 62
     0
 10
207.92
 20
69.6556
 30
0.0
 11
207.92
 21
72.7548
 31
0.0
  0
LINE
  8
0
 62
     0
 10
207.92
 20
72.7548
 30
0.0
 11
207.119
 21
72.7548
 31
0.0
  0
LINE
  8
0
 62
     0
 10
207.119
 20
72.7548
 30
0.0
 11
207.119
 21
73.7553
 31
0.0
  0
LINE
  8
0
 62
     0
 10
207.119
 20
73.7553
 30
0.0
 11
193.12
 21
73.7553
 31
0.0
  0
LINE
  8
0
 62
     0
 10
212.17
 20
73.7553
 30
0.0
 11
212.17
 21
72.7548
 31
0.0
  0
LINE
  8
0
 62
     0
 10
212.17
 20
72.7548
 30
0.0
 11
211.37
 21
72.7548
 31
0.0
  0
LINE
  8
0
 62
     0
 10
211.37
 20
72.7548
 30
0.0
 11
211.37
 21
69.6556
 31
0.0
  0
LINE
  8
0
 62
     0
 10
211.37
 20
69.6556
 30
0.0
 11
212.17
 21
69.6556
 31
0.0
  0
LINE
  8
0
 62
     0
 10
212.17
 20
69.6556
 30
0.0
 11
212.17
 21
63.8556
 31
0.0
  0
LINE
  8
0
 62
     0
 10
212.17
 20
63.8556
 30
0.0
 11
211.37
 21
63.8556
 31
0.0
  0
LINE
  8
0
 62
     0
 10
211.37
 20
63.8556
 30
0.0
 11
211.37
 21
60.755
 31
0.0
  0
LINE
  8
0
 62
     0
 10
211.37
 20
60.755
 30
0.0
 11
212.17
 21
60.755
 31
0.0
  0
LINE
  8
0
 62
     0
 10
212.17
 20
60.755
 30
0.0
 11
212.17
 21
59.756
 31
0.0
  0
LINE
  8
0
 62
     0
 10
212.17
 20
59.756
 30
0.0
 11
226.169
 21
59.756
 31
0.0
  0
LINE
  8
0
 62
     0
 10
226.169
 20
59.756
 30
0.0
 11
226.169
 21
60.755
 31
0.0
  0
LINE
  8
0
 62
     0
 10
226.169
 20
60.755
 30
0.0
 11
226.97
 21
60.755
 31
0.0
  0
LINE
  8
0
 62
     0
 10
226.97
 20
60.755
 30
0.0
 11
226.97
 21
63.8556
 31
0.0
  0
LINE
  8
0
 62
     0
 10
226.97
 20
63.8556
 30
0.0
 11
226.169
 21
63.8556
 31
0.0
  0
LINE
  8
0
 62
     0
 10
226.169
 20
63.8556
 30
0.0
 11
226.169
 21
69.6556
 31
0.0
  0
LINE
  8
0
 62
     0
 10
226.169
 20
69.6556
 30
0.0
 11
226.97
 21
69.6556
 31
0.0
  0
LINE
  8
0
 62
     0
 10
226.97
 20
69.6556
 30
0.0
 11
226.97
 21
72.7548
 31
0.0
  0
LINE
  8
0
 62
     0
 10
226.97
 20
72.7548
 30
0.0
 11
226.169
 21
72.7548
 31
0.0
  0
LINE
  8
0
 62
     0
 10
226.169
 20
72.7548
 30
0.0
 11
226.169
 21
73.7553
 31
0.0
  0
LINE
  8
0
 62
     0
 10
226.169
 20
73.7553
 30
0.0
 11
212.17
 21
73.7553
 31
0.0
  0
ENDSEC
  0
EOF
